<svg width="654" height="27" viewBox="0 0 654 27" fill="none" xmlns="http://www.w3.org/2000/svg">
<path fill-rule="evenodd" clip-rule="evenodd" d="M0.282115 0L7.47785 0V8.88878H6.34913V0.987638H1.55197V8.88878H0.282115V0ZM9.17096 2.53966H10.2997V3.38621C10.3937 3.19809 10.4878 3.057 10.5819 2.96294C10.6759 2.86887 10.817 2.77482 11.0051 2.68076C11.1933 2.58669 11.3813 2.49262 11.5695 2.39856C11.7576 2.30449 11.9927 2.25748 12.2749 2.25748C12.6512 2.25748 12.9804 2.35153 13.2626 2.53966C13.5448 2.63372 13.827 2.82183 14.1092 3.10401C14.3914 3.3862 14.5794 3.71543 14.6735 4.09167C14.8616 4.46792 14.9557 4.93822 14.9557 5.50259C14.9557 6.16102 14.8616 6.72538 14.6735 7.19569C14.5794 7.66599 14.3914 8.04224 14.1092 8.32443C13.9211 8.70067 13.6388 8.93582 13.2626 9.02989C12.8863 9.12395 12.4631 9.17096 11.9928 9.17096C11.8047 9.17096 11.6165 9.17096 11.4284 9.17096C11.2403 9.0769 11.0992 8.98285 11.0051 8.88878C10.817 8.79472 10.6759 8.70067 10.5819 8.60661C10.4878 8.51254 10.3937 8.41849 10.2997 8.32443V11.5695H9.17096V2.53966ZM10.2997 5.92585C10.2997 6.20803 10.3467 6.53726 10.4407 6.91351C10.4407 7.19569 10.5348 7.43085 10.7229 7.61897C10.817 7.80709 11.0052 7.9952 11.2873 8.18333C11.4755 8.27739 11.7106 8.32443 11.9928 8.32443C12.275 8.32443 12.5571 8.27739 12.8393 8.18333C13.0274 7.9952 13.2156 7.80709 13.4037 7.61897C13.4978 7.43085 13.5918 7.19569 13.6858 6.91351C13.7799 6.53726 13.827 6.20803 13.827 5.92585C13.827 5.5496 13.7799 5.17338 13.6858 4.79713C13.5918 4.51495 13.4978 4.2798 13.4037 4.09167C13.2156 3.80949 13.0274 3.62135 12.8393 3.52729C12.5571 3.43323 12.275 3.38621 11.9928 3.38621C11.7106 3.38621 11.4755 3.43323 11.2873 3.52729C11.0052 3.62135 10.817 3.80949 10.7229 4.09167C10.5348 4.2798 10.4407 4.51495 10.4407 4.79713C10.3467 5.17338 10.2997 5.5496 10.2997 5.92585ZM21.8692 5.78477C21.8692 6.34914 21.8221 6.86646 21.7281 7.33677C21.54 7.71301 21.3048 8.04224 21.0226 8.32443C20.8345 8.70067 20.5523 8.93582 20.1761 9.02989C19.7999 9.21801 19.3765 9.31206 18.9062 9.31206C18.3419 9.31206 17.9187 9.21801 17.6365 9.02989C17.2602 8.93582 16.931 8.70067 16.6488 8.32443C16.3666 8.04224 16.1785 7.71301 16.0844 7.33677C15.8963 6.86646 15.8022 6.34914 15.8022 5.78477C15.8022 5.31446 15.8963 4.84416 16.0844 4.37385C16.1785 3.99761 16.3666 3.62136 16.6488 3.24511C16.931 2.96293 17.2602 2.77482 17.6365 2.68076C17.9187 2.49263 18.3419 2.39856 18.9062 2.39856C19.3765 2.39856 19.7999 2.49263 20.1761 2.68076C20.5523 2.77482 20.8345 2.96293 21.0226 3.24511C21.3048 3.62136 21.54 3.99761 21.7281 4.37385C21.8221 4.84416 21.8692 5.31446 21.8692 5.78477ZM20.7404 5.78477C20.7404 5.40853 20.6934 5.07932 20.5994 4.79713C20.5053 4.51495 20.4112 4.2798 20.3172 4.09167C20.129 3.80949 19.8939 3.62135 19.6117 3.52729C19.4236 3.43323 19.1884 3.38621 18.9062 3.38621C18.53 3.38621 18.2478 3.43323 18.0597 3.52729C17.7775 3.62135 17.5424 3.80949 17.3543 4.09167C17.2602 4.2798 17.1661 4.51495 17.0721 4.79713C16.978 5.07932 16.931 5.40853 16.931 5.78477C16.931 6.16102 16.978 6.53726 17.0721 6.91351C17.1661 7.19569 17.2602 7.43085 17.3543 7.61897C17.5424 7.80709 17.7775 7.9952 18.0597 8.18333C18.2478 8.27739 18.53 8.32443 18.9062 8.32443C19.1884 8.32443 19.4236 8.27739 19.6117 8.18333C19.8939 7.9952 20.129 7.80709 20.3172 7.61897C20.4112 7.43085 20.5053 7.19569 20.5994 6.91351C20.6934 6.53726 20.7404 6.16102 20.7404 5.78477ZM23.139 2.53966H27.2307V3.52729H24.2677V9.17096H23.139V2.53966ZM28.0772 2.53966H29.2059V3.38621C29.3 3.19809 29.3941 3.057 29.4881 2.96294C29.6762 2.77481 29.8173 2.63372 29.9114 2.53966C30.0995 2.44559 30.2877 2.39856 30.4758 2.39856C30.6639 2.30449 30.8991 2.25748 31.1812 2.25748C31.5575 2.25748 31.8867 2.35153 32.1689 2.53966C32.5451 2.63372 32.8273 2.82183 33.0154 3.10401C33.2976 3.3862 33.4858 3.71543 33.5798 4.09167C33.7679 4.46792 33.862 4.93822 33.862 5.50259C33.862 6.16102 33.8149 6.72538 33.7209 7.19569C33.5328 7.66599 33.2976 8.04224 33.0154 8.32443C32.8273 8.60661 32.5451 8.84176 32.1689 9.02989C31.7927 9.12395 31.4164 9.17096 31.0402 9.17096C30.758 9.17096 30.5228 9.17096 30.3347 9.17096C30.1466 9.0769 30.0054 8.98285 29.9114 8.88878C29.7233 8.79472 29.5822 8.70067 29.4881 8.60661C29.3941 8.51254 29.3 8.41849 29.2059 8.32443V11.5695H28.0772V2.53966ZM29.2059 5.78477C29.2059 6.16102 29.253 6.49022 29.3471 6.77241C29.4411 7.14865 29.5352 7.43085 29.6293 7.61897C29.8174 7.80709 30.0055 7.9952 30.1936 8.18333C30.3817 8.27739 30.6169 8.32443 30.899 8.32443C31.2753 8.32443 31.5575 8.27739 31.7456 8.18333C32.0278 7.9952 32.2159 7.80709 32.31 7.61897C32.4981 7.43085 32.5922 7.14865 32.5922 6.77241C32.6862 6.49022 32.7332 6.16102 32.7332 5.78477C32.7332 5.50259 32.6862 5.17338 32.5922 4.79713C32.5922 4.51495 32.4981 4.2798 32.31 4.09167C32.2159 3.80949 32.0278 3.62135 31.7456 3.52729C31.5575 3.43323 31.2753 3.38621 30.899 3.38621C30.6169 3.38621 30.3817 3.43323 30.1936 3.52729C30.0055 3.62135 29.8174 3.80949 29.6293 4.09167C29.5352 4.2798 29.4411 4.51495 29.3471 4.79713C29.253 5.17338 29.2059 5.50259 29.2059 5.78477ZM35.1318 4.51493C35.1318 4.13869 35.2259 3.80948 35.414 3.52729C35.5081 3.24511 35.6962 3.00996 35.9784 2.82184C36.1665 2.63371 36.4017 2.49262 36.6839 2.39856C37.0601 2.39856 37.4363 2.39856 37.8126 2.39856C38.0948 2.39856 38.3769 2.39856 38.6591 2.39856C39.0353 2.49262 39.3176 2.63371 39.5057 2.82184C39.7879 2.9159 39.9759 3.10403 40.07 3.38621C40.2581 3.57434 40.3522 3.80949 40.3522 4.09167V7.90115C40.3522 8.08927 40.3522 8.18333 40.3522 8.18333C40.4463 8.27739 40.5403 8.32443 40.6344 8.32443H40.7755H41.0577V9.02989C40.9636 9.12395 40.8695 9.17096 40.7755 9.17096C40.6814 9.17096 40.5403 9.17096 40.3522 9.17096C40.1641 9.17096 40.023 9.17096 39.9289 9.17096C39.7408 9.0769 39.5998 9.02989 39.5057 9.02989C39.4116 8.93582 39.3645 8.79473 39.3645 8.60661C39.2705 8.51254 39.2235 8.37145 39.2235 8.18333C39.1294 8.37145 38.9884 8.51254 38.8002 8.60661C38.6121 8.79473 38.424 8.93582 38.2358 9.02989C38.0477 9.12395 37.8596 9.17096 37.6714 9.17096C37.3892 9.26503 37.1071 9.31206 36.8249 9.31206C36.5427 9.31206 36.3076 9.26503 36.1195 9.17096C35.8373 9.0769 35.6021 8.93581 35.414 8.74768C35.2259 8.65362 35.0848 8.46551 34.9907 8.18333C34.8967 7.9952 34.8496 7.71301 34.8496 7.33677C34.8496 7.05458 34.8967 6.77241 34.9907 6.49023C35.0848 6.30211 35.2259 6.11397 35.414 5.92585C35.6021 5.73773 35.8373 5.59665 36.1195 5.50259C36.3076 5.40853 36.5427 5.36149 36.8249 5.36149L38.6591 5.07931C38.8472 5.07931 38.9883 5.03227 39.0823 4.93821C39.1764 4.84415 39.2235 4.65604 39.2235 4.37385C39.2235 3.99761 39.0824 3.71542 38.8002 3.52729C38.518 3.33917 38.1417 3.24511 37.6714 3.24511C37.2011 3.24511 36.8249 3.33917 36.5427 3.52729C36.3546 3.80948 36.2135 4.13869 36.1195 4.51493H35.1318ZM39.2235 5.78477C39.1294 5.87883 39.0353 5.92585 38.9413 5.92585C38.7532 5.92585 38.6121 5.97289 38.518 6.06695C38.3299 6.06695 38.1418 6.06695 37.9536 6.06695C37.7655 6.06695 37.5774 6.11399 37.3893 6.20805C37.2012 6.20805 37.013 6.25507 36.8249 6.34913C36.6368 6.34913 36.4957 6.39617 36.4017 6.49023C36.3076 6.58429 36.2135 6.67835 36.1195 6.77241C36.0254 6.96053 35.9784 7.10163 35.9784 7.19569C35.9784 7.38381 36.0254 7.57192 36.1195 7.76005C36.2135 7.85411 36.3076 7.94816 36.4017 8.04223C36.4957 8.13629 36.5898 8.23037 36.6839 8.32443C36.872 8.32443 37.0601 8.32443 37.2482 8.32443C37.3422 8.32443 37.4363 8.32443 37.5304 8.32443C37.7185 8.32443 37.9066 8.27739 38.0948 8.18333C38.1888 8.18333 38.3299 8.13629 38.518 8.04223C38.6121 7.94816 38.7062 7.85411 38.8002 7.76005C38.9884 7.57192 39.0823 7.43083 39.0823 7.33677C39.1764 7.14864 39.2235 6.96053 39.2235 6.77241V5.78477ZM42.1864 2.68076H43.7384L45.5726 7.90115L47.2657 2.68076H48.8177V9.17096H47.8301V3.95057H47.689L45.9959 9.17096H45.0082L43.174 3.95057V9.17096H42.1864V2.68076ZM50.5108 2.68076H52.0628L53.7559 8.04223H53.897L55.5901 2.68076H57.1422V9.17096H56.1545V3.95057H56.0134L54.3203 9.17096H53.3327L51.4985 3.95057V9.17096H50.5108V2.68076ZM58.8352 4.65603C58.8352 4.27979 58.8823 3.95058 58.9763 3.66839C59.1645 3.38621 59.3525 3.15106 59.5406 2.96294C59.8228 2.77481 60.1051 2.63372 60.3873 2.53966C60.6694 2.53966 61.0457 2.53966 61.516 2.53966C61.7982 2.53966 62.0803 2.53966 62.3625 2.53966C62.6447 2.63372 62.9269 2.77481 63.2091 2.96294C63.3972 3.057 63.5853 3.24511 63.7734 3.52729C63.8675 3.71542 63.9145 3.99761 63.9145 4.37385V8.04223C63.9145 8.23035 63.9615 8.32443 64.0556 8.32443C64.0556 8.41849 64.1497 8.46551 64.3378 8.46551H64.4789H64.62V9.17096C64.5259 9.26503 64.4319 9.31206 64.3378 9.31206C64.2437 9.31206 64.1497 9.31206 64.0556 9.31206C63.8675 9.31206 63.6794 9.31206 63.4913 9.31206C63.3972 9.218 63.3031 9.17096 63.2091 9.17096C63.115 9.0769 63.0209 8.93581 62.9269 8.74768C62.9269 8.65362 62.9269 8.51255 62.9269 8.32443C62.7388 8.51255 62.5977 8.65362 62.5036 8.74768C62.3155 8.93581 62.1274 9.0769 61.9392 9.17096C61.7511 9.26503 61.516 9.31206 61.2338 9.31206C61.0456 9.40613 60.8105 9.45314 60.5283 9.45314C60.2461 9.45314 59.964 9.40613 59.6818 9.31206C59.4937 9.218 59.3055 9.07691 59.1174 8.88878C58.9293 8.79472 58.7882 8.60661 58.6941 8.32443C58.506 8.1363 58.4119 7.85411 58.4119 7.47787C58.4119 7.19568 58.506 6.91349 58.6941 6.63131C58.7882 6.44319 58.9293 6.25507 59.1174 6.06695C59.3055 5.87883 59.4937 5.73773 59.6818 5.64367C59.964 5.54961 60.1991 5.50259 60.3873 5.50259L62.2214 5.22039C62.4096 5.22039 62.5506 5.17337 62.6447 5.07931C62.7387 4.98525 62.7858 4.79712 62.7858 4.51493C62.7858 4.13869 62.6918 3.85652 62.5036 3.66839C62.2214 3.48027 61.8452 3.38621 61.3749 3.38621C60.8105 3.38621 60.4342 3.48027 60.2461 3.66839C59.9639 3.95058 59.8229 4.27979 59.8229 4.65603H58.8352ZM62.9269 5.92585C62.8328 6.01991 62.6918 6.06695 62.5036 6.06695C62.4096 6.06695 62.2685 6.11399 62.0804 6.20805C61.9863 6.20805 61.8452 6.20805 61.657 6.20805C61.4689 6.20805 61.2808 6.25507 61.0927 6.34913C60.9046 6.34913 60.7164 6.39617 60.5283 6.49023C60.3402 6.49023 60.1991 6.53725 60.1051 6.63131C59.9169 6.72537 59.8229 6.81945 59.8229 6.91351C59.7288 7.10163 59.6818 7.24271 59.6818 7.33677C59.6818 7.52489 59.6818 7.71302 59.6818 7.90115C59.7759 7.99521 59.8699 8.08926 59.964 8.18333C60.0581 8.27739 60.1991 8.37144 60.3873 8.46551C60.4813 8.46551 60.6224 8.46551 60.8105 8.46551C60.9046 8.46551 61.0456 8.46551 61.2338 8.46551C61.4219 8.46551 61.563 8.41849 61.657 8.32443C61.8452 8.32443 61.9863 8.27739 62.0804 8.18333C62.2685 8.08926 62.4096 7.99521 62.5036 7.90115C62.5977 7.71302 62.6918 7.57193 62.7858 7.47787C62.8799 7.28974 62.9269 7.10163 62.9269 6.91351V5.92585ZM74.7786 9.31206H69.6993V10.8641H68.5706V8.32443H69.4171C69.6052 7.85412 69.7464 7.38381 69.8404 6.91351C70.0285 6.53726 70.1225 6.11398 70.1225 5.64367C70.2166 5.17336 70.2637 4.70306 70.2637 4.23275C70.2637 3.76245 70.2637 3.29214 70.2637 2.82184H74.7786V8.32443H75.7662V10.8641H74.7786V9.31206ZM73.791 8.32443V3.80947H71.3924C71.2983 4.18572 71.2513 4.56197 71.2513 4.93821C71.2513 5.31446 71.2043 5.69071 71.1102 6.06695C71.1102 6.44319 71.0632 6.81944 70.9691 7.19569C70.8751 7.57193 70.734 7.94818 70.5459 8.32443H73.791ZM81.4099 3.80947H78.8702V5.36149C78.7762 6.11398 78.6821 6.7724 78.588 7.33677C78.494 7.90113 78.4 8.32442 78.3059 8.60661C78.1178 8.88879 77.8826 9.12394 77.6005 9.31206C77.4123 9.40613 77.1301 9.45314 76.7539 9.45314C76.6598 9.45314 76.5657 9.45314 76.4717 9.45314C76.3776 9.45314 76.3306 9.40613 76.3306 9.31206V8.32443C76.5187 8.41849 76.6598 8.46551 76.7539 8.46551C76.8479 8.46551 76.942 8.41849 77.0361 8.32443C77.1301 8.32443 77.1771 8.27739 77.1771 8.18333C77.2712 8.08926 77.3653 7.99521 77.4593 7.90115C77.4593 7.71302 77.5064 7.52489 77.6005 7.33677C77.6005 7.05458 77.6475 6.77241 77.7415 6.49023C77.7415 6.11398 77.7415 5.6907 77.7415 5.22039V2.82184H82.5387V9.31206H81.4099V3.80947ZM89.4521 9.45314H88.3234V6.77241H86.9125C86.6303 6.77241 86.3951 6.77241 86.207 6.77241C86.0189 6.77241 85.8778 6.81945 85.7838 6.91351C85.5956 7.00757 85.4546 7.10163 85.3605 7.19569C85.3605 7.38381 85.3134 7.57192 85.2194 7.76005V8.46551V8.60661C85.2194 8.70067 85.2194 8.79472 85.2194 8.88878C85.2194 8.98285 85.1724 9.0769 85.0783 9.17096C85.0783 9.26503 85.0783 9.35908 85.0783 9.45314H83.8084L83.9496 9.31206V9.17096C83.9496 9.0769 83.9966 8.98285 84.0907 8.88878C84.0907 8.70066 84.0907 8.55957 84.0907 8.46551L84.2317 7.61897C84.2317 7.33678 84.2317 7.14865 84.2317 7.05459C84.3258 6.86647 84.3728 6.77241 84.3728 6.77241C84.4669 6.67835 84.561 6.58429 84.6551 6.49023C84.7491 6.39617 84.8902 6.34913 85.0783 6.34913C84.3258 6.06695 83.9496 5.54962 83.9496 4.79713C83.9496 4.60901 83.9966 4.42088 84.0907 4.23275C84.0907 4.04463 84.1376 3.90353 84.2317 3.80947C84.3258 3.62135 84.4198 3.48028 84.5139 3.38621C84.608 3.29215 84.7021 3.24511 84.7961 3.24511C84.9842 3.15105 85.1253 3.057 85.2194 2.96294C85.4075 2.96294 85.5486 2.96294 85.6426 2.96294C85.8307 2.86887 86.0189 2.82184 86.207 2.82184C86.3011 2.82184 86.4422 2.82184 86.6303 2.82184H89.4521V9.45314ZM88.3234 3.95057H86.6303C86.4422 3.95057 86.3011 3.95057 86.207 3.95057C86.113 3.95057 86.0189 3.95057 85.9248 3.95057C85.9248 3.95057 85.8778 3.95057 85.7838 3.95057L85.5016 4.09167C85.4075 4.18574 85.3134 4.32681 85.2194 4.51493C85.1253 4.60899 85.0783 4.75009 85.0783 4.93821C85.0783 5.12633 85.1253 5.26743 85.2194 5.36149C85.2194 5.54961 85.2665 5.64367 85.3605 5.64367C85.4546 5.73773 85.5486 5.83179 85.6426 5.92585C85.8307 5.92585 85.9719 5.92585 86.066 5.92585C86.16 5.92585 86.254 5.92585 86.3481 5.92585C86.4421 6.01991 86.5362 6.06695 86.6303 6.06695H88.3234V3.95057ZM94.5315 2.96294H95.6602V3.80947C95.7543 3.62135 95.8483 3.48028 95.9424 3.38621C96.0365 3.19809 96.1775 3.057 96.3656 2.96294C96.5538 2.86887 96.7418 2.82184 96.93 2.82184C97.1181 2.72777 97.3532 2.68076 97.6354 2.68076C98.0117 2.68076 98.3409 2.77481 98.6231 2.96294C98.9053 3.057 99.1875 3.24511 99.4697 3.52729C99.7519 3.80948 99.9399 4.13869 100.034 4.51493C100.222 4.89118 100.316 5.36148 100.316 5.92585C100.316 6.58428 100.222 7.14866 100.034 7.61897C99.9399 8.08927 99.7519 8.4655 99.4697 8.74768C99.2816 9.02987 98.9993 9.26502 98.6231 9.45314C98.2468 9.5472 97.8236 9.59424 97.3533 9.59424C97.1652 9.59424 96.977 9.59424 96.7889 9.59424C96.6008 9.50018 96.4597 9.40613 96.3656 9.31206C96.1775 9.218 96.0365 9.12395 95.9424 9.02989C95.8483 8.93582 95.7543 8.84175 95.6602 8.74768V11.9928H94.5315V2.96294ZM95.6602 6.20805C95.6602 6.58429 95.7072 6.9135 95.8012 7.19569C95.8012 7.57193 95.8953 7.8541 96.0835 8.04223C96.1775 8.23035 96.3657 8.41848 96.6479 8.60661C96.836 8.70067 97.0711 8.74768 97.3533 8.74768C97.6355 8.74768 97.9176 8.70067 98.1998 8.60661C98.3879 8.41848 98.5761 8.23035 98.7642 8.04223C98.8583 7.8541 98.9523 7.57193 99.0463 7.19569C99.1404 6.9135 99.1875 6.58429 99.1875 6.20805C99.1875 5.92587 99.1404 5.59664 99.0463 5.22039C98.9523 4.93821 98.8583 4.70305 98.7642 4.51493C98.5761 4.23275 98.3879 4.04463 98.1998 3.95057C97.9176 3.85651 97.6355 3.80947 97.3533 3.80947C97.0711 3.80947 96.836 3.85651 96.6479 3.95057C96.3657 4.04463 96.1775 4.23275 96.0835 4.51493C95.8953 4.70305 95.8012 4.93821 95.8012 5.22039C95.7072 5.59664 95.6602 5.92587 95.6602 6.20805ZM107.089 7.47787C107.089 7.76005 106.995 7.9952 106.806 8.18333C106.712 8.46551 106.524 8.7477 106.242 9.02989C105.96 9.21801 105.678 9.35908 105.395 9.45314C105.019 9.64127 104.643 9.73534 104.267 9.73534C103.796 9.73534 103.373 9.64127 102.997 9.45314C102.621 9.35908 102.338 9.17097 102.15 8.88878C101.868 8.6066 101.633 8.23035 101.445 7.76005C101.257 7.28974 101.163 6.77242 101.163 6.20805C101.163 5.83181 101.21 5.45556 101.304 5.07931C101.398 4.79713 101.539 4.51494 101.727 4.23275C101.821 3.95057 101.962 3.71542 102.15 3.52729C102.433 3.33917 102.668 3.19808 102.856 3.10401C103.044 3.00995 103.279 2.9159 103.561 2.82184C103.749 2.82184 103.938 2.82184 104.126 2.82184C104.596 2.82184 105.019 2.86887 105.395 2.96294C105.772 3.057 106.101 3.24511 106.383 3.52729C106.665 3.80948 106.853 4.18573 106.948 4.65603C107.136 5.03228 107.23 5.50258 107.23 6.06695V6.63131H102.433C102.433 6.91349 102.48 7.19568 102.574 7.47787C102.668 7.76005 102.762 7.9952 102.856 8.18333C103.044 8.37145 103.232 8.51254 103.42 8.60661C103.702 8.70067 103.985 8.74768 104.267 8.74768C104.549 8.74768 104.784 8.70067 104.972 8.60661C105.16 8.51254 105.348 8.41849 105.537 8.32443C105.631 8.1363 105.725 7.99521 105.819 7.90115C105.913 7.71302 105.96 7.57193 105.96 7.47787H107.089ZM106.101 5.78477C106.101 5.40853 106.054 5.12633 105.96 4.93821C105.866 4.65603 105.725 4.42088 105.537 4.23275C105.443 4.04463 105.254 3.90353 104.972 3.80947C104.784 3.80947 104.549 3.80947 104.267 3.80947C103.985 3.80947 103.749 3.85651 103.561 3.95057C103.373 4.04463 103.185 4.18573 102.997 4.37385C102.809 4.46791 102.668 4.65603 102.574 4.93821C102.48 5.22039 102.433 5.50259 102.433 5.78477H106.101ZM108.5 2.96294H109.628V8.46551H112.027V2.96294H113.156V8.46551H115.554V2.96294H116.683V9.45314H108.5V2.96294ZM123.879 7.47787C123.784 7.76005 123.69 8.04224 123.596 8.32443C123.408 8.60661 123.22 8.84176 123.032 9.02989C122.75 9.21801 122.421 9.40612 122.044 9.59424C121.762 9.6883 121.433 9.73534 121.057 9.73534C120.586 9.73534 120.163 9.6883 119.787 9.59424C119.411 9.40612 119.081 9.17097 118.799 8.88878C118.517 8.6066 118.329 8.23035 118.235 7.76005C118.047 7.28974 117.953 6.77242 117.953 6.20805C117.953 5.83181 118 5.50257 118.094 5.22039C118.188 4.84415 118.282 4.51494 118.376 4.23275C118.564 4.04463 118.752 3.85652 118.94 3.66839C119.128 3.48027 119.317 3.29214 119.505 3.10401C119.787 3.00995 120.022 2.96294 120.21 2.96294C120.492 2.86887 120.727 2.82184 120.916 2.82184C121.386 2.82184 121.809 2.86887 122.185 2.96294C122.468 3.15106 122.75 3.38621 123.032 3.66839C123.314 3.95058 123.549 4.27979 123.737 4.65603C123.831 5.03228 123.879 5.50258 123.879 6.06695V6.63131H119.081C119.175 7.00755 119.223 7.28974 119.223 7.47787C119.317 7.76005 119.458 7.9952 119.646 8.18333C119.834 8.37145 120.022 8.51254 120.21 8.60661C120.398 8.70067 120.68 8.74768 121.057 8.74768C121.339 8.74768 121.574 8.70067 121.762 8.60661C121.95 8.51254 122.091 8.41849 122.185 8.32443C122.374 8.23037 122.515 8.08927 122.609 7.90115C122.609 7.71302 122.656 7.57193 122.75 7.47787H123.879ZM122.891 5.78477C122.797 5.50259 122.75 5.22039 122.75 4.93821C122.656 4.65603 122.515 4.46791 122.326 4.37385C122.138 4.18573 121.95 4.04463 121.762 3.95057C121.574 3.85651 121.339 3.80947 121.057 3.80947C120.775 3.80947 120.539 3.85651 120.351 3.95057C120.069 4.04463 119.881 4.18573 119.787 4.37385C119.599 4.56198 119.458 4.75009 119.364 4.93821C119.27 5.22039 119.223 5.50259 119.223 5.78477H122.891ZM125.289 2.96294H126.418V5.64367H129.522V2.96294H130.651V9.59424H129.522V6.63131H126.418V9.59424H125.289V2.96294ZM132.203 2.96294H133.332V7.90115L136.577 2.96294H137.847V9.45314H136.718V4.37385L133.473 9.45314H132.203V2.96294ZM144.901 9.45314H143.772V6.91351H142.22C142.032 6.91351 141.844 6.91351 141.656 6.91351C141.468 6.91351 141.28 6.96053 141.092 7.05459C140.998 7.05459 140.904 7.14864 140.81 7.33677C140.715 7.43083 140.668 7.61896 140.668 7.90115V8.60661L140.527 8.74768C140.527 8.84175 140.527 8.93582 140.527 9.02989C140.527 9.02989 140.527 9.0769 140.527 9.17096C140.527 9.26503 140.48 9.35908 140.386 9.45314H139.257V9.31206L139.399 9.17096C139.399 9.17096 139.399 9.07691 139.399 8.88878C139.493 8.79472 139.54 8.65363 139.54 8.46551V7.61897C139.634 7.43085 139.681 7.28975 139.681 7.19569C139.681 7.00757 139.728 6.86647 139.822 6.77241C139.916 6.67835 140.01 6.63131 140.104 6.63131C140.198 6.53725 140.292 6.44319 140.386 6.34913C139.728 6.16101 139.399 5.64368 139.399 4.79713C139.399 4.60901 139.446 4.46791 139.54 4.37385C139.54 4.18573 139.587 3.9976 139.681 3.80947C139.775 3.71541 139.869 3.62135 139.963 3.52729C140.057 3.43323 140.151 3.33918 140.245 3.24511C140.339 3.15105 140.48 3.10401 140.668 3.10401C140.762 3.00995 140.904 2.96294 141.092 2.96294C141.28 2.96294 141.421 2.96294 141.515 2.96294C141.703 2.96294 141.844 2.96294 141.938 2.96294H144.901V9.45314ZM143.772 3.95057H142.079C141.891 3.95057 141.75 3.95057 141.656 3.95057C141.562 3.95057 141.468 3.95057 141.374 3.95057C141.28 3.95057 141.186 3.95057 141.092 3.95057L140.951 4.09167C140.762 4.18574 140.668 4.27979 140.668 4.37385C140.574 4.56198 140.527 4.75009 140.527 4.93821C140.527 5.12633 140.527 5.26743 140.527 5.36149C140.621 5.45555 140.715 5.54961 140.81 5.64367C140.904 5.73773 140.998 5.78477 141.092 5.78477C141.186 5.87883 141.28 5.92585 141.374 5.92585C141.468 5.92585 141.609 5.92585 141.797 5.92585C141.891 5.92585 141.985 5.92585 142.079 5.92585H143.772V3.95057ZM154.213 3.95057H151.109V9.59424H149.981V2.96294H155.342V9.59424H154.213V3.95057ZM156.894 2.96294H158.023V3.80947C158.117 3.62135 158.211 3.48028 158.305 3.38621C158.399 3.29215 158.54 3.15106 158.728 2.96294C158.916 2.86887 159.104 2.82184 159.293 2.82184C159.481 2.72777 159.716 2.68076 159.998 2.68076C160.28 2.68076 160.609 2.77481 160.986 2.96294C161.268 3.057 161.55 3.24511 161.832 3.52729C162.114 3.80948 162.303 4.13869 162.397 4.51493C162.585 4.89118 162.679 5.36148 162.679 5.92585C162.679 6.58428 162.585 7.14866 162.397 7.61897C162.303 8.08927 162.114 8.4655 161.832 8.74768C161.55 9.02987 161.268 9.26502 160.986 9.45314C160.609 9.5472 160.186 9.59424 159.716 9.59424C159.528 9.59424 159.34 9.59424 159.151 9.59424C158.963 9.50018 158.775 9.40613 158.587 9.31206C158.493 9.218 158.399 9.12395 158.305 9.02989C158.211 8.93582 158.117 8.84175 158.023 8.74768V11.9928H156.894V2.96294ZM158.023 6.34913C158.023 6.63131 158.023 6.9135 158.023 7.19569C158.117 7.57193 158.258 7.8541 158.446 8.04223C158.54 8.23035 158.728 8.41848 159.01 8.60661C159.198 8.70067 159.434 8.74768 159.716 8.74768C159.998 8.74768 160.28 8.70067 160.562 8.60661C160.751 8.41848 160.939 8.23035 161.127 8.04223C161.221 7.8541 161.315 7.57193 161.409 7.19569C161.503 6.9135 161.55 6.63131 161.55 6.34913C161.55 5.97288 161.503 5.59664 161.409 5.22039C161.315 4.93821 161.221 4.70305 161.127 4.51493C160.939 4.23275 160.751 4.04463 160.562 3.95057C160.28 3.85651 159.998 3.80947 159.716 3.80947C159.434 3.80947 159.198 3.85651 159.01 3.95057C158.728 4.04463 158.54 4.23275 158.446 4.51493C158.258 4.70305 158.117 4.93821 158.023 5.22039C158.023 5.59664 158.023 5.97288 158.023 6.34913ZM169.592 6.20805C169.592 6.77242 169.498 7.28974 169.31 7.76005C169.216 8.13629 169.028 8.4655 168.746 8.74768C168.464 9.02987 168.134 9.26502 167.758 9.45314C167.382 9.64127 166.959 9.73534 166.488 9.73534C166.018 9.73534 165.595 9.64127 165.218 9.45314C164.842 9.26502 164.56 9.02987 164.372 8.74768C164.09 8.4655 163.855 8.13629 163.666 7.76005C163.572 7.28974 163.525 6.77242 163.525 6.20805C163.525 5.73774 163.572 5.26744 163.666 4.79713C163.855 4.42089 164.09 4.04464 164.372 3.66839C164.56 3.38621 164.842 3.15106 165.218 2.96294C165.595 2.86887 166.018 2.82184 166.488 2.82184C166.959 2.82184 167.382 2.86887 167.758 2.96294C168.134 3.15106 168.464 3.38621 168.746 3.66839C169.028 4.04464 169.216 4.42089 169.31 4.79713C169.498 5.26744 169.592 5.73774 169.592 6.20805ZM168.464 6.20805C168.464 5.83181 168.417 5.50257 168.322 5.22039C168.228 4.93821 168.087 4.70305 167.899 4.51493C167.805 4.23275 167.617 4.04463 167.335 3.95057C167.147 3.85651 166.865 3.80947 166.488 3.80947C166.206 3.80947 165.971 3.85651 165.783 3.95057C165.501 4.04463 165.265 4.23275 165.077 4.51493C164.983 4.70305 164.889 4.93821 164.795 5.22039C164.701 5.50257 164.654 5.83181 164.654 6.20805C164.654 6.58429 164.701 6.9135 164.795 7.19569C164.889 7.57193 164.983 7.8541 165.077 8.04223C165.265 8.23035 165.501 8.41848 165.783 8.60661C165.971 8.70067 166.206 8.74768 166.488 8.74768C166.865 8.74768 167.147 8.70067 167.335 8.60661C167.617 8.41848 167.805 8.23035 167.899 8.04223C168.087 7.8541 168.228 7.57193 168.322 7.19569C168.417 6.9135 168.464 6.58429 168.464 6.20805ZM175.941 0.42328C175.941 0.517341 175.941 0.611398 175.941 0.705459C175.847 0.79952 175.8 0.893577 175.8 0.987638C175.8 1.0817 175.753 1.17578 175.659 1.26984C175.565 1.3639 175.471 1.45796 175.377 1.55202L175.236 1.6931C175.142 1.6931 175.048 1.6931 174.954 1.6931C174.86 1.78716 174.766 1.8342 174.672 1.8342C174.578 1.8342 174.389 1.8342 174.107 1.8342H173.684C173.402 1.8342 173.12 1.88124 172.837 1.9753C172.555 2.16342 172.32 2.35153 172.132 2.53966C171.944 2.72778 171.803 2.96293 171.709 3.24511C171.615 3.62136 171.521 3.99761 171.426 4.37385C171.521 4.18573 171.615 3.9976 171.709 3.80947C171.803 3.71541 171.944 3.57434 172.132 3.38621C172.32 3.29215 172.555 3.19808 172.837 3.10401C173.12 3.00995 173.402 2.96294 173.684 2.96294C174.06 2.96294 174.436 3.05699 174.813 3.24511C175.189 3.33918 175.471 3.52729 175.659 3.80947C175.941 4.09166 176.177 4.42089 176.365 4.79713C176.459 5.17338 176.506 5.64368 176.506 6.20805C176.506 6.39617 176.506 6.58429 176.506 6.77241C176.506 7.05459 176.459 7.33678 176.365 7.61897C176.271 7.80709 176.177 8.04224 176.082 8.32443C175.894 8.60661 175.706 8.84176 175.518 9.02989C175.236 9.21801 174.954 9.35908 174.672 9.45314C174.389 9.64127 174.013 9.73534 173.543 9.73534C173.355 9.73534 173.167 9.6883 172.978 9.59424C172.696 9.59424 172.461 9.5472 172.273 9.45314C172.085 9.35908 171.897 9.26503 171.709 9.17096C171.52 8.98284 171.332 8.79473 171.144 8.60661C171.05 8.51254 170.956 8.37145 170.862 8.18333C170.768 8.08926 170.721 7.90115 170.721 7.61897C170.627 7.43085 170.58 7.19569 170.58 6.91351C170.486 6.63133 170.439 6.30209 170.439 5.92585C170.439 5.64367 170.439 5.31446 170.439 4.93821C170.533 4.65603 170.58 4.32682 170.58 3.95057C170.674 3.66839 170.768 3.33918 170.862 2.96294C170.956 2.68075 171.097 2.39856 171.285 2.11638C171.473 1.92825 171.662 1.74014 171.85 1.55202C172.038 1.3639 172.226 1.2228 172.414 1.12874C172.602 1.03468 172.837 0.987638 173.12 0.987638C173.308 0.893577 173.543 0.846559 173.825 0.846559H174.248C174.436 0.846559 174.53 0.846559 174.53 0.846559C174.624 0.846559 174.719 0.846559 174.813 0.846559L174.954 0.705459C175.048 0.611398 175.095 0.517341 175.095 0.42328H175.941ZM171.568 6.34913C171.568 6.44319 171.568 6.58429 171.568 6.77241C171.568 6.96053 171.615 7.14864 171.709 7.33677C171.709 7.52489 171.756 7.71302 171.85 7.90115C171.944 8.08927 172.085 8.23037 172.273 8.32443C172.367 8.51255 172.508 8.65362 172.696 8.74768C172.978 8.74768 173.261 8.74768 173.543 8.74768C173.825 8.74768 174.06 8.70067 174.248 8.60661C174.53 8.51254 174.719 8.41849 174.813 8.32443C175.001 8.1363 175.095 7.94817 175.095 7.76005C175.189 7.57192 175.283 7.38381 175.377 7.19569C175.377 6.9135 175.377 6.72537 175.377 6.63131C175.377 6.44319 175.377 6.30211 175.377 6.20805C175.377 5.92587 175.33 5.64367 175.236 5.36149C175.236 5.07931 175.142 4.84415 174.954 4.65603C174.86 4.37385 174.672 4.18574 174.389 4.09167C174.201 3.99761 173.919 3.95057 173.543 3.95057C173.167 3.95057 172.884 3.99761 172.696 4.09167C172.414 4.18574 172.179 4.37385 171.991 4.65603C171.897 4.84415 171.803 5.07931 171.709 5.36149C171.615 5.73774 171.568 6.06695 171.568 6.34913ZM182.149 3.95057H179.751L179.61 5.50259C179.61 6.34914 179.563 7.00756 179.469 7.47787C179.375 8.04223 179.234 8.4655 179.045 8.74768C178.857 9.12393 178.669 9.35908 178.481 9.45314C178.199 9.64127 177.917 9.73534 177.634 9.73534C177.54 9.73534 177.446 9.6883 177.352 9.59424C177.258 9.59424 177.164 9.5472 177.07 9.45314V8.46551C177.258 8.55957 177.399 8.60661 177.493 8.60661C177.587 8.60661 177.682 8.60661 177.776 8.60661C177.87 8.51254 177.964 8.46551 178.058 8.46551C178.152 8.37144 178.199 8.23035 178.199 8.04223C178.293 7.94816 178.34 7.76005 178.34 7.47787C178.434 7.19568 178.481 6.91349 178.481 6.63131C178.481 6.25506 178.528 5.8318 178.622 5.36149V2.96294H183.278V9.45314H182.149V3.95057ZM190.474 7.47787C190.474 7.76005 190.38 8.04224 190.192 8.32443C190.098 8.60661 189.909 8.84176 189.627 9.02989C189.345 9.21801 189.063 9.40612 188.781 9.59424C188.405 9.6883 188.028 9.73534 187.652 9.73534C187.276 9.73534 186.899 9.6883 186.523 9.59424C186.147 9.40612 185.818 9.17097 185.536 8.88878C185.253 8.6066 185.018 8.23035 184.83 7.76005C184.736 7.3838 184.689 6.86648 184.689 6.20805C184.689 5.83181 184.689 5.50257 184.689 5.22039C184.783 4.84415 184.924 4.56198 185.112 4.37385C185.3 4.09167 185.489 3.85652 185.677 3.66839C185.865 3.48027 186.053 3.33918 186.241 3.24511C186.429 3.05699 186.664 2.96294 186.947 2.96294C187.135 2.86887 187.323 2.82184 187.511 2.82184C187.981 2.82184 188.405 2.91589 188.781 3.10401C189.157 3.19808 189.486 3.38621 189.768 3.66839C190.051 3.95058 190.239 4.27979 190.333 4.65603C190.521 5.12634 190.615 5.59664 190.615 6.06695V6.63131H185.818C185.818 7.00755 185.865 7.33678 185.959 7.61897C186.053 7.80709 186.194 7.9952 186.382 8.18333C186.476 8.37145 186.664 8.51254 186.947 8.60661C187.135 8.70067 187.37 8.74768 187.652 8.74768C187.934 8.74768 188.169 8.70067 188.357 8.60661C188.546 8.60661 188.734 8.51255 188.922 8.32443C189.016 8.23037 189.11 8.08927 189.204 7.90115C189.298 7.80709 189.392 7.66599 189.486 7.47787H190.474ZM189.345 5.78477C189.345 5.50259 189.298 5.22039 189.204 4.93821C189.11 4.65603 189.016 4.46791 188.922 4.37385C188.734 4.18573 188.546 4.04463 188.357 3.95057C188.075 3.85651 187.793 3.80947 187.511 3.80947C187.323 3.80947 187.088 3.85651 186.805 3.95057C186.617 4.04463 186.429 4.18573 186.241 4.37385C186.147 4.56198 186.053 4.75009 185.959 4.93821C185.865 5.22039 185.771 5.50259 185.677 5.78477H189.345ZM191.885 3.10401H193.437L195.13 8.32443H195.271L196.964 3.10401H198.516V9.59424H197.387V4.37385L195.694 9.59424H194.565L192.872 4.37385V9.59424H191.885V3.10401ZM203.595 3.10401H206.417C207.17 3.10401 207.781 3.24511 208.251 3.52729C208.628 3.80948 208.816 4.23277 208.816 4.79713C208.816 5.07932 208.722 5.36149 208.534 5.64367C208.44 5.83179 208.251 5.97289 207.969 6.06695C208.345 6.25507 208.628 6.44319 208.816 6.63131C209.004 6.91349 209.098 7.24272 209.098 7.61897C209.098 7.90115 209.051 8.18332 208.957 8.46551C208.863 8.74769 208.722 8.93582 208.534 9.02989C208.345 9.21801 208.063 9.35908 207.687 9.45314C207.405 9.5472 207.029 9.59424 206.558 9.59424H203.595V3.10401ZM204.724 8.74768H206.417C206.699 8.74768 206.935 8.74768 207.123 8.74768C207.405 8.65362 207.593 8.55957 207.687 8.46551C207.781 8.37144 207.875 8.27739 207.969 8.18333C207.969 7.9952 207.969 7.85411 207.969 7.76005C207.969 7.57192 207.969 7.43083 207.969 7.33677C207.875 7.14864 207.781 7.00757 207.687 6.91351C207.593 6.81945 207.405 6.77241 207.123 6.77241C206.935 6.67835 206.699 6.63131 206.417 6.63131H204.724V8.74768ZM204.724 5.92585H206.417C206.793 5.92585 207.123 5.87883 207.405 5.78477C207.593 5.59665 207.687 5.3615 207.687 5.07931C207.687 4.89119 207.64 4.70305 207.546 4.51493C207.546 4.42087 207.452 4.32681 207.264 4.23275C207.17 4.23275 207.076 4.18574 206.982 4.09167C206.887 4.09167 206.746 4.09167 206.558 4.09167H204.724V5.92585ZM216.152 6.34913C216.152 6.9135 216.106 7.43084 216.011 7.90115C215.823 8.27739 215.588 8.6066 215.306 8.88878C215.118 9.26503 214.789 9.50018 214.318 9.59424C214.036 9.78237 213.613 9.87642 213.049 9.87642C212.578 9.87642 212.155 9.78237 211.779 9.59424C211.402 9.50018 211.12 9.26503 210.932 8.88878C210.65 8.6066 210.415 8.27739 210.227 7.90115C210.133 7.43084 210.086 6.9135 210.086 6.34913C210.086 5.87882 210.133 5.40852 210.227 4.93821C210.415 4.56197 210.65 4.23276 210.932 3.95057C211.12 3.57433 211.402 3.33918 211.779 3.24511C212.155 3.05699 212.578 2.96294 213.049 2.96294C213.613 2.96294 214.036 3.05699 214.318 3.24511C214.789 3.33918 215.118 3.57433 215.306 3.95057C215.588 4.23276 215.823 4.56197 216.011 4.93821C216.106 5.40852 216.152 5.87882 216.152 6.34913ZM215.024 6.34913C215.024 6.06695 214.977 5.73774 214.883 5.36149C214.789 5.07931 214.695 4.84415 214.601 4.65603C214.412 4.37385 214.177 4.18574 213.895 4.09167C213.707 3.99761 213.425 3.95057 213.049 3.95057C212.766 3.95057 212.531 3.99761 212.343 4.09167C212.061 4.18574 211.826 4.37385 211.638 4.65603C211.544 4.84415 211.449 5.07931 211.355 5.36149C211.261 5.73774 211.214 6.06695 211.214 6.34913C211.214 6.72537 211.261 7.10162 211.355 7.47787C211.449 7.76005 211.544 7.9952 211.638 8.18333C211.826 8.37145 212.061 8.55956 212.343 8.74768C212.531 8.84175 212.766 8.88878 213.049 8.88878C213.425 8.88878 213.707 8.84175 213.895 8.74768C214.177 8.55956 214.412 8.37145 214.601 8.18333C214.695 7.9952 214.789 7.76005 214.883 7.47787C214.977 7.10162 215.024 6.72537 215.024 6.34913ZM221.796 4.09167H219.257V5.64367C219.257 6.49022 219.21 7.14866 219.115 7.61897C219.021 8.18333 218.88 8.6066 218.692 8.88878C218.504 9.26503 218.316 9.50018 218.128 9.59424C217.846 9.78237 217.563 9.87642 217.281 9.87642C217.187 9.87642 217.093 9.82941 216.999 9.73534C216.905 9.73534 216.811 9.73534 216.717 9.73534V8.74768C216.905 8.74768 217.046 8.74768 217.14 8.74768C217.234 8.74768 217.328 8.74768 217.422 8.74768C217.516 8.74768 217.61 8.70067 217.705 8.60661C217.705 8.51254 217.752 8.37145 217.846 8.18333C217.94 8.08926 217.987 7.90115 217.987 7.61897C218.081 7.43085 218.128 7.14865 218.128 6.77241C218.128 6.39616 218.128 5.9729 218.128 5.50259L218.269 3.10401H222.925V9.73534H221.796V4.09167ZM230.262 6.34913C230.262 6.81943 230.215 7.28974 230.121 7.76005C229.932 8.23035 229.697 8.6066 229.415 8.88878C229.227 9.17097 228.945 9.40612 228.569 9.59424C228.192 9.6883 227.769 9.73534 227.299 9.73534C226.734 9.73534 226.311 9.6883 226.029 9.59424C225.653 9.40612 225.324 9.17097 225.041 8.88878C224.759 8.6066 224.571 8.23035 224.477 7.76005C224.289 7.28974 224.195 6.81943 224.195 6.34913C224.195 5.78476 224.289 5.31446 224.477 4.93821C224.571 4.46791 224.759 4.09166 225.041 3.80947C225.324 3.52729 225.653 3.29214 226.029 3.10401C226.311 2.91589 226.734 2.82184 227.299 2.82184C227.769 2.82184 228.192 2.91589 228.569 3.10401C228.945 3.29214 229.227 3.52729 229.415 3.80947C229.697 4.09166 229.932 4.46791 230.121 4.93821C230.215 5.31446 230.262 5.78476 230.262 6.34913ZM229.133 6.34913C229.133 5.97288 229.086 5.64367 228.992 5.36149C228.898 5.07931 228.804 4.79712 228.71 4.51493C228.522 4.32681 228.286 4.18574 228.004 4.09167C227.816 3.90355 227.581 3.80947 227.299 3.80947C226.923 3.80947 226.64 3.90355 226.452 4.09167C226.17 4.18574 225.935 4.32681 225.747 4.51493C225.653 4.79712 225.559 5.07931 225.465 5.36149C225.371 5.64367 225.323 5.97288 225.323 6.34913C225.323 6.72537 225.371 7.05458 225.465 7.33677C225.559 7.61895 225.653 7.90114 225.747 8.18333C225.935 8.37145 226.17 8.51254 226.452 8.60661C226.64 8.79473 226.923 8.88878 227.299 8.88878C227.581 8.88878 227.816 8.79473 228.004 8.60661C228.286 8.51254 228.522 8.37145 228.71 8.18333C228.804 7.90114 228.898 7.61895 228.992 7.33677C229.086 7.05458 229.133 6.72537 229.133 6.34913ZM236.611 7.33677C236.611 7.43083 236.611 7.57192 236.611 7.76005C236.517 7.94817 236.423 8.1363 236.329 8.32443C236.235 8.51255 236.141 8.70066 236.046 8.88878C235.858 9.07691 235.67 9.218 235.482 9.31206C235.294 9.50019 235.059 9.64128 234.777 9.73534C234.494 9.73534 234.212 9.73534 233.93 9.73534C233.742 9.73534 233.507 9.73534 233.225 9.73534C233.037 9.64128 232.848 9.5472 232.66 9.45314C232.472 9.35908 232.284 9.21801 232.096 9.02989C231.908 8.84176 231.72 8.65363 231.532 8.46551C231.437 8.18332 231.343 7.85411 231.249 7.47787C231.155 7.19568 231.108 6.81943 231.108 6.34913C231.108 5.78476 231.202 5.31446 231.39 4.93821C231.579 4.46791 231.767 4.09166 231.955 3.80947C232.237 3.52729 232.566 3.29214 232.942 3.10401C233.225 2.91589 233.554 2.82184 233.93 2.82184C234.306 2.82184 234.636 2.86887 234.918 2.96294C235.2 3.057 235.435 3.15105 235.623 3.24511C235.811 3.33918 235.952 3.48027 236.046 3.66839C236.235 3.85652 236.376 4.04463 236.47 4.23275C236.47 4.42088 236.517 4.60901 236.611 4.79713C236.611 4.89119 236.611 5.03227 236.611 5.22039H235.623C235.529 4.84415 235.388 4.51494 235.2 4.23275C234.918 3.95057 234.541 3.80947 234.071 3.80947C233.789 3.80947 233.554 3.90355 233.366 4.09167C233.084 4.18574 232.848 4.32681 232.66 4.51493C232.566 4.79712 232.472 5.07931 232.378 5.36149C232.284 5.64367 232.237 6.01992 232.237 6.49023C232.237 6.86647 232.284 7.19568 232.378 7.47787C232.472 7.85411 232.613 8.1363 232.801 8.32443C232.895 8.51255 233.084 8.65362 233.366 8.74768C233.554 8.84175 233.789 8.88878 234.071 8.88878C234.259 8.88878 234.447 8.84175 234.636 8.74768C234.824 8.74768 234.965 8.65363 235.059 8.46551C235.247 8.37144 235.388 8.23035 235.482 8.04223C235.576 7.76004 235.623 7.52489 235.623 7.33677H236.611ZM237.881 10.8641C238.163 10.8641 238.398 10.6759 238.586 10.2997C238.586 10.1116 238.586 9.92347 238.586 9.73534V9.59424H237.881V8.32443H239.292V9.45314C239.292 9.92345 239.197 10.3467 239.009 10.723C238.727 11.0992 238.351 11.3344 237.881 11.4284V10.8641ZM249.873 7.33677C249.779 7.43083 249.732 7.57192 249.732 7.76005C249.638 7.94817 249.544 8.1363 249.45 8.32443C249.356 8.51255 249.262 8.70066 249.168 8.88878C248.98 9.07691 248.792 9.218 248.604 9.31206C248.415 9.50019 248.18 9.64128 247.898 9.73534C247.616 9.82941 247.334 9.87642 247.052 9.87642C246.863 9.87642 246.628 9.82941 246.346 9.73534C246.158 9.73534 245.97 9.64127 245.782 9.45314C245.594 9.35908 245.406 9.21801 245.217 9.02989C245.029 8.93582 244.888 8.74769 244.794 8.46551C244.606 8.18332 244.465 7.85411 244.371 7.47787C244.277 7.19568 244.23 6.81943 244.23 6.34913C244.23 5.78476 244.324 5.31446 244.512 4.93821C244.7 4.46791 244.888 4.09166 245.076 3.80947C245.358 3.52729 245.688 3.29214 246.064 3.10401C246.346 2.91589 246.722 2.82184 247.193 2.82184C247.475 2.82184 247.757 2.86887 248.039 2.96294C248.321 3.057 248.557 3.15105 248.745 3.24511C248.933 3.43324 249.074 3.57433 249.168 3.66839C249.356 3.85652 249.497 4.04463 249.591 4.23275C249.591 4.42088 249.638 4.60901 249.732 4.79713C249.732 4.98525 249.779 5.12633 249.873 5.22039H248.745C248.651 4.84415 248.51 4.51494 248.321 4.23275C248.039 3.95057 247.663 3.80947 247.193 3.80947C246.911 3.80947 246.675 3.90355 246.487 4.09167C246.205 4.18574 246.017 4.32681 245.923 4.51493C245.735 4.79712 245.594 5.07931 245.5 5.36149C245.406 5.73774 245.359 6.11398 245.359 6.49023C245.359 6.86647 245.406 7.24272 245.5 7.61897C245.594 7.90115 245.735 8.1363 245.923 8.32443C246.017 8.51255 246.205 8.65362 246.487 8.74768C246.675 8.84175 246.911 8.88878 247.193 8.88878C247.381 8.88878 247.569 8.84175 247.757 8.74768C247.945 8.74768 248.086 8.65363 248.18 8.46551C248.368 8.37144 248.51 8.23035 248.604 8.04223C248.698 7.76004 248.745 7.52489 248.745 7.33677H249.873ZM251.002 3.10401H252.131V6.20805L255.376 3.10401H256.928L253.824 5.92585L256.928 9.59424H255.517L252.977 6.63131L252.131 7.33677V9.59424H251.002V3.10401ZM262.29 4.09167H259.75V5.64367C259.656 6.49022 259.562 7.14866 259.468 7.61897C259.374 8.18333 259.233 8.6066 259.044 8.88878C258.95 9.26503 258.762 9.50018 258.48 9.59424C258.292 9.78237 258.01 9.87642 257.634 9.87642C257.539 9.87642 257.445 9.82941 257.351 9.73534C257.257 9.73534 257.21 9.6883 257.21 9.59424V8.60661C257.304 8.70067 257.445 8.74768 257.634 8.74768C257.728 8.74768 257.775 8.74768 257.775 8.74768C257.869 8.65362 257.963 8.60661 258.057 8.60661C258.151 8.51254 258.245 8.37145 258.339 8.18333C258.339 8.08926 258.386 7.90115 258.48 7.61897C258.48 7.33678 258.48 7.05459 258.48 6.77241C258.574 6.39616 258.621 5.9729 258.621 5.50259V3.10401H263.418V9.59424H262.29V4.09167ZM270.755 6.49023C270.755 6.96053 270.661 7.43084 270.473 7.90115C270.379 8.27739 270.191 8.65364 269.909 9.02989C269.626 9.31207 269.297 9.54722 268.921 9.73534C268.545 9.82941 268.121 9.87642 267.651 9.87642C267.181 9.87642 266.757 9.82941 266.381 9.73534C266.005 9.54722 265.676 9.31207 265.394 9.02989C265.111 8.65364 264.923 8.27739 264.829 7.90115C264.735 7.43084 264.688 6.96053 264.688 6.49023C264.688 5.92586 264.735 5.40852 264.829 4.93821C264.923 4.56197 265.111 4.23276 265.394 3.95057C265.676 3.57433 266.005 3.33918 266.381 3.24511C266.757 3.05699 267.181 2.96294 267.651 2.96294C268.121 2.96294 268.545 3.05699 268.921 3.24511C269.297 3.33918 269.626 3.57433 269.909 3.95057C270.191 4.23276 270.379 4.56197 270.473 4.93821C270.661 5.40852 270.755 5.92586 270.755 6.49023ZM269.626 6.49023C269.626 6.11398 269.579 5.78477 269.485 5.50259C269.391 5.12635 269.25 4.84415 269.062 4.65603C268.874 4.46791 268.686 4.2798 268.498 4.09167C268.215 3.99761 267.933 3.95057 267.651 3.95057C267.369 3.95057 267.087 3.99761 266.804 4.09167C266.616 4.2798 266.428 4.46791 266.24 4.65603C266.052 4.84415 265.911 5.12635 265.817 5.50259C265.723 5.78477 265.676 6.11398 265.676 6.49023C265.676 6.77241 265.723 7.10162 265.817 7.47787C265.911 7.76005 266.052 7.9952 266.24 8.18333C266.428 8.46551 266.616 8.65362 266.804 8.74768C267.087 8.84175 267.369 8.88878 267.651 8.88878C267.933 8.88878 268.215 8.84175 268.498 8.74768C268.686 8.65362 268.874 8.46551 269.062 8.18333C269.25 7.9952 269.391 7.76005 269.485 7.47787C269.579 7.10162 269.626 6.77241 269.626 6.49023ZM272.025 3.10401H273.013V5.78477H276.116V3.10401H277.245V9.73534H276.116V6.77241H273.013V9.73534H272.025V3.10401ZM278.938 3.10401H280.067V5.64367H283.03V3.10401H284.159V9.59424H283.03V6.63131H280.067V9.59424H278.938V3.10401ZM292.06 3.10401H293.189V9.59424H292.06V3.10401ZM285.852 3.10401H286.981V5.64367H288.956C289.332 5.64367 289.661 5.69071 289.944 5.78477C290.226 5.87883 290.461 6.01993 290.649 6.20805C290.837 6.39617 290.978 6.58429 291.072 6.77241C291.166 7.05459 291.213 7.33678 291.213 7.61897C291.213 7.99521 291.166 8.27738 291.072 8.46551C290.978 8.74769 290.837 8.98284 290.649 9.17096C290.461 9.35909 290.226 9.50018 289.944 9.59424C289.661 9.6883 289.332 9.73534 288.956 9.73534H285.852V3.10401ZM286.981 8.74768H288.674C288.862 8.74768 289.05 8.70067 289.238 8.60661C289.426 8.60661 289.567 8.55957 289.661 8.46551C289.849 8.37144 289.944 8.23035 289.944 8.04223C290.038 7.94816 290.085 7.76005 290.085 7.47787C290.085 7.28974 290.038 7.14865 289.944 7.05459C289.944 6.86647 289.849 6.72537 289.661 6.63131C289.567 6.53725 289.426 6.49023 289.238 6.49023C289.05 6.39617 288.862 6.34913 288.674 6.34913H286.981V8.74768ZM297.139 7.33677L295.587 9.73534H294.176L296.434 6.34913L294.317 3.24511H295.728L297.28 5.50259L298.691 3.24511H300.102L297.845 6.34913L300.243 9.73534H298.832L297.139 7.33677ZM304.617 3.24511H305.746V6.34913L308.991 3.24511H310.402L307.439 6.06695L310.543 9.73534H309.132L306.451 6.77241L305.746 7.47787V9.73534H304.617V3.24511ZM319.008 4.23275H316.046V9.73534H314.917V3.24511H320.137V9.73534H319.008V4.23275ZM321.125 3.24511H322.395L324.088 8.60661L325.922 3.24511H327.051L324.652 10.1586C324.464 10.4408 324.323 10.723 324.229 11.0052C324.135 11.2873 324.041 11.4755 323.947 11.5695C323.853 11.7576 323.758 11.8987 323.664 11.9928C323.57 12.1809 323.476 12.275 323.382 12.275C323.194 12.369 323.053 12.4161 322.959 12.4161C322.771 12.4161 322.583 12.4161 322.395 12.4161C322.207 12.4161 322.065 12.4161 321.971 12.4161C321.877 12.4161 321.783 12.4161 321.689 12.4161V11.4284C321.783 11.4284 321.877 11.4284 321.971 11.4284C322.159 11.5225 322.301 11.5695 322.395 11.5695C322.583 11.5695 322.771 11.4755 322.959 11.2873C323.053 11.1933 323.147 11.0522 323.241 10.8641L323.523 10.0175L321.125 3.24511ZM328.038 3.24511H329.167V8.74768H331.566V3.24511H332.694V8.74768H335.093V3.24511H336.222V9.73534H328.038V3.24511ZM337.774 3.24511H338.902V8.32443L342.147 3.24511H343.417V9.87642H342.289V4.79713L339.043 9.87642H337.774V3.24511ZM350.19 7.47787C350.19 7.57193 350.19 7.71302 350.19 7.90115C350.096 8.08927 350.002 8.27738 349.908 8.46551C349.813 8.65363 349.719 8.84176 349.625 9.02989C349.437 9.21801 349.249 9.35908 349.061 9.45314C348.873 9.64127 348.638 9.73534 348.355 9.73534C348.073 9.82941 347.791 9.87642 347.509 9.87642C347.321 9.87642 347.086 9.87642 346.803 9.87642C346.615 9.78236 346.427 9.6883 346.239 9.59424C346.051 9.50018 345.863 9.35909 345.675 9.17096C345.487 8.98284 345.299 8.79473 345.11 8.60661C345.016 8.32442 344.922 7.99521 344.828 7.61897C344.734 7.33678 344.687 6.96053 344.687 6.49023C344.687 5.92586 344.781 5.45556 344.969 5.07931C345.157 4.60901 345.346 4.23276 345.534 3.95057C345.816 3.66839 346.145 3.43324 346.521 3.24511C346.803 3.05699 347.133 2.96294 347.509 2.96294C347.885 2.96294 348.214 3.00995 348.497 3.10401C348.779 3.19808 349.014 3.29215 349.202 3.38621C349.39 3.48028 349.531 3.62135 349.625 3.80947C349.813 3.9976 349.908 4.18573 349.908 4.37385C350.002 4.46791 350.096 4.60901 350.19 4.79713C350.19 4.98525 350.19 5.17337 350.19 5.36149H349.202C349.108 4.89118 348.967 4.56198 348.779 4.37385C348.497 4.09167 348.12 3.95057 347.65 3.95057C347.368 3.95057 347.133 3.99761 346.945 4.09167C346.662 4.2798 346.427 4.46791 346.239 4.65603C346.145 4.93822 346.051 5.22041 345.957 5.50259C345.863 5.78477 345.816 6.11398 345.816 6.49023C345.816 6.96053 345.863 7.33678 345.957 7.61897C346.051 7.99521 346.192 8.27738 346.38 8.46551C346.474 8.65363 346.615 8.79472 346.803 8.88878C347.086 8.98285 347.368 9.02989 347.65 9.02989C347.838 9.02989 348.026 8.98285 348.214 8.88878C348.403 8.79472 348.544 8.70067 348.638 8.60661C348.732 8.41848 348.873 8.23035 349.061 8.04223C349.155 7.8541 349.202 7.66599 349.202 7.47787H350.19ZM353.012 4.09167H350.754V3.24511H356.398V4.09167H354.14V9.73534H353.012V4.09167ZM363.17 6.34913C363.17 6.9135 363.123 7.3838 363.029 7.76005C362.841 8.23035 362.653 8.6066 362.465 8.88878C362.182 9.17097 361.853 9.40612 361.477 9.59424C361.101 9.78237 360.678 9.87642 360.207 9.87642C359.737 9.87642 359.314 9.78237 358.937 9.59424C358.561 9.40612 358.232 9.17097 357.95 8.88878C357.668 8.6066 357.479 8.23035 357.385 7.76005C357.197 7.3838 357.103 6.9135 357.103 6.34913C357.103 5.78476 357.197 5.31446 357.385 4.93821C357.479 4.46791 357.668 4.09166 357.95 3.80947C358.232 3.52729 358.561 3.29214 358.937 3.10401C359.314 2.91589 359.737 2.82184 360.207 2.82184C360.678 2.82184 361.101 2.91589 361.477 3.10401C361.853 3.29214 362.182 3.52729 362.465 3.80947C362.653 4.09166 362.841 4.46791 363.029 4.93821C363.123 5.31446 363.17 5.78476 363.17 6.34913ZM362.041 6.34913C362.041 5.97288 362.041 5.64367 362.041 5.36149C361.947 5.07931 361.806 4.79712 361.618 4.51493C361.43 4.32681 361.242 4.18574 361.054 4.09167C360.772 3.90355 360.489 3.80947 360.207 3.80947C359.925 3.80947 359.643 3.90355 359.361 4.09167C359.173 4.18574 358.984 4.32681 358.796 4.51493C358.608 4.79712 358.467 5.07931 358.373 5.36149C358.279 5.64367 358.232 5.97288 358.232 6.34913C358.232 6.72537 358.279 7.05458 358.373 7.33677C358.467 7.61895 358.608 7.90114 358.796 8.18333C358.984 8.37145 359.173 8.51254 359.361 8.60661C359.643 8.79473 359.925 8.88878 360.207 8.88878C360.489 8.88878 360.772 8.79473 361.054 8.60661C361.242 8.51254 361.43 8.37145 361.618 8.18333C361.806 7.90114 361.947 7.61895 362.041 7.33677C362.041 7.05458 362.041 6.72537 362.041 6.34913ZM369.66 7.33677C369.66 7.52489 369.613 7.71302 369.519 7.90115C369.519 8.08927 369.472 8.27738 369.378 8.46551C369.284 8.65363 369.143 8.79472 368.955 8.88878C368.861 9.07691 368.72 9.26502 368.532 9.45314C368.249 9.5472 368.014 9.64128 367.826 9.73534C367.544 9.82941 367.215 9.87642 366.839 9.87642C366.65 9.87642 366.462 9.82941 366.274 9.73534C365.992 9.73534 365.757 9.64127 365.569 9.45314C365.381 9.35908 365.192 9.21801 365.004 9.02989C364.816 8.93582 364.675 8.74769 364.581 8.46551C364.393 8.18332 364.299 7.90115 364.299 7.61897C364.205 7.24272 364.158 6.81943 364.158 6.34913C364.158 5.87882 364.205 5.40852 364.299 4.93821C364.487 4.46791 364.722 4.09166 365.004 3.80947C365.192 3.52729 365.475 3.29214 365.851 3.10401C366.227 2.91589 366.603 2.82184 366.98 2.82184C367.262 2.82184 367.544 2.86887 367.826 2.96294C368.108 3.057 368.343 3.15105 368.532 3.24511C368.72 3.43324 368.908 3.57433 369.096 3.66839C369.19 3.85652 369.284 4.04463 369.378 4.23275C369.472 4.42088 369.519 4.60901 369.519 4.79713C369.613 4.98525 369.66 5.12633 369.66 5.22039H368.532C368.532 4.84415 368.391 4.51494 368.108 4.23275C367.826 3.95057 367.497 3.80947 367.121 3.80947C366.744 3.80947 366.462 3.90355 366.274 4.09167C365.992 4.18574 365.804 4.37385 365.71 4.65603C365.522 4.84415 365.381 5.07931 365.286 5.36149C365.286 5.73774 365.286 6.11398 365.286 6.49023C365.286 6.86647 365.286 7.24272 365.286 7.61897C365.381 7.90115 365.522 8.1363 365.71 8.32443C365.898 8.51255 366.086 8.65362 366.274 8.74768C366.462 8.84175 366.697 8.88878 366.98 8.88878C367.168 8.88878 367.356 8.84175 367.544 8.74768C367.732 8.74768 367.873 8.65363 367.967 8.46551C368.155 8.37144 368.296 8.23035 368.391 8.04223C368.485 7.8541 368.532 7.61895 368.532 7.33677H369.66ZM372.623 4.09167H370.366V3.10401H375.868V4.09167H373.611V9.59424H372.623V4.09167ZM376.997 3.10401H378.126V8.18333H378.267L381.371 3.10401H382.641V9.73534H381.512V4.65603L378.408 9.73534H376.997V3.10401ZM387.861 3.10401H388.99V8.04223L392.235 3.10401H393.505V9.59424H392.376V4.51493L389.131 9.59424H387.861V3.10401ZM399.572 4.09167H397.032V5.64367C396.938 6.39616 396.844 7.0546 396.75 7.61897C396.656 8.18333 396.515 8.6066 396.327 8.88878C396.233 9.17097 396.045 9.40612 395.762 9.59424C395.574 9.6883 395.292 9.73534 394.916 9.73534C394.822 9.73534 394.728 9.73534 394.634 9.73534C394.54 9.73534 394.492 9.6883 394.492 9.59424V8.60661C394.587 8.70067 394.728 8.74768 394.916 8.74768C395.01 8.74768 395.104 8.70067 395.198 8.60661C395.198 8.60661 395.245 8.55957 395.339 8.46551C395.433 8.37144 395.527 8.27739 395.621 8.18333C395.621 7.9952 395.668 7.80709 395.762 7.61897C395.762 7.33678 395.762 7.05459 395.762 6.77241C395.856 6.39616 395.903 5.9729 395.903 5.50259V3.10401H400.701V9.59424H399.572V4.09167ZM402.253 3.10401H403.381V8.18333L406.626 3.10401H407.896V9.73534H406.768V4.65603L403.522 9.73534H402.253V3.10401ZM413.117 3.10401H414.245V8.04223L417.349 3.10401H418.76V9.59424H417.632V4.51493H417.49L414.386 9.59424H413.117V3.10401ZM422.005 5.78477H422.57C422.758 5.78477 422.946 5.78477 423.134 5.78477C423.228 5.78477 423.369 5.73773 423.557 5.64367C423.651 5.54961 423.746 5.45555 423.84 5.36149C423.934 5.17337 423.981 4.98525 423.981 4.79713C423.981 4.70307 423.934 4.60899 423.84 4.51493C423.84 4.32681 423.792 4.18574 423.698 4.09167C423.604 3.99761 423.463 3.95057 423.275 3.95057C423.087 3.85651 422.899 3.80947 422.711 3.80947C422.617 3.80947 422.476 3.85651 422.288 3.95057C422.099 3.95057 421.958 3.99761 421.864 4.09167C421.676 4.18574 421.535 4.32681 421.441 4.51493C421.347 4.60899 421.253 4.79713 421.159 5.07931H420.171C420.171 4.79713 420.218 4.56198 420.312 4.37385C420.406 4.09167 420.547 3.85652 420.736 3.66839C420.83 3.57433 420.971 3.48028 421.159 3.38621C421.347 3.19809 421.535 3.10401 421.723 3.10401C421.817 3.00995 421.958 2.96294 422.146 2.96294C422.335 2.86887 422.523 2.82184 422.711 2.82184C422.993 2.82184 423.275 2.86887 423.557 2.96294C423.84 3.057 424.122 3.19809 424.404 3.38621C424.592 3.48028 424.78 3.66839 424.968 3.95057C425.062 4.1387 425.109 4.37385 425.109 4.65603C425.109 4.93822 425.062 5.12633 424.968 5.22039C424.968 5.40851 424.921 5.54961 424.827 5.64367C424.733 5.73773 424.639 5.83179 424.545 5.92585C424.357 6.01991 424.216 6.06695 424.122 6.06695V6.20805C424.216 6.20805 424.357 6.25507 424.545 6.34913C424.639 6.34913 424.78 6.39617 424.968 6.49023C425.062 6.67835 425.157 6.86647 425.251 7.05459C425.345 7.24271 425.392 7.43085 425.392 7.61897C425.392 7.99521 425.297 8.32442 425.109 8.60661C424.921 8.88879 424.733 9.12394 424.545 9.31206C424.263 9.50019 423.981 9.64128 423.698 9.73534C423.322 9.82941 422.993 9.87642 422.711 9.87642C422.241 9.87642 421.864 9.78237 421.582 9.59424C421.206 9.50018 420.924 9.35909 420.736 9.17096C420.453 8.98284 420.218 8.74769 420.03 8.46551C419.936 8.18332 419.889 7.90115 419.889 7.61897H421.018C421.018 7.80709 421.065 7.9952 421.159 8.18333C421.253 8.37145 421.394 8.51254 421.582 8.60661C421.77 8.70067 421.958 8.74768 422.146 8.74768C422.335 8.84175 422.523 8.88878 422.711 8.88878C423.181 8.88878 423.557 8.74769 423.84 8.46551C424.122 8.27738 424.263 7.99521 424.263 7.61897C424.263 7.52491 424.216 7.43083 424.122 7.33677C424.122 7.14864 424.028 7.05459 423.84 7.05459C423.746 6.96053 423.604 6.86647 423.416 6.77241C423.228 6.77241 423.04 6.77241 422.852 6.77241H422.57H422.429H422.288H422.005V5.78477ZM431.035 3.95057H428.496V5.50259C428.402 6.34914 428.308 7.0546 428.213 7.61897C428.119 8.08927 428.025 8.51254 427.931 8.88878C427.743 9.17097 427.508 9.35908 427.226 9.45314C427.038 9.64127 426.755 9.73534 426.379 9.73534C426.285 9.73534 426.191 9.6883 426.097 9.59424C426.003 9.59424 425.956 9.59424 425.956 9.59424V8.60661C426.144 8.60661 426.285 8.60661 426.379 8.60661C426.473 8.60661 426.567 8.60661 426.661 8.60661C426.661 8.60661 426.708 8.55957 426.803 8.46551C426.897 8.37144 426.991 8.27739 427.085 8.18333C427.085 7.9952 427.132 7.76005 427.226 7.47787C427.226 7.28974 427.273 7.00755 427.367 6.63131C427.367 6.34912 427.367 5.9729 427.367 5.50259V2.96294H432.164V9.59424H431.035V3.95057ZM433.716 2.96294H434.845V7.90115H434.986L438.09 2.96294H439.36V9.45314H438.231V4.51493L435.127 9.45314H433.716V2.96294ZM441.053 2.96294H442.182V8.60661H444.58V2.96294H445.709V8.60661H447.966V2.96294H449.095V9.45314H441.053V2.96294ZM450.788 2.96294H451.917V5.64367H455.021V2.96294H456.15V9.59424H455.021V6.63131H451.917V9.59424H450.788V2.96294ZM463.345 7.33677C463.251 7.61895 463.157 7.90114 463.063 8.18333C462.875 8.46551 462.64 8.70066 462.358 8.88878C462.169 9.17097 461.887 9.35908 461.511 9.45314C461.229 9.5472 460.853 9.59424 460.382 9.59424C460.006 9.59424 459.63 9.5472 459.254 9.45314C458.877 9.26502 458.548 9.02987 458.266 8.74768C457.984 8.4655 457.749 8.13629 457.56 7.76005C457.466 7.28974 457.419 6.77242 457.419 6.20805C457.419 5.73774 457.466 5.3615 457.56 5.07931C457.655 4.70307 457.749 4.42088 457.843 4.23275C458.031 3.95057 458.219 3.71542 458.407 3.52729C458.595 3.33917 458.783 3.19808 458.971 3.10401C459.254 3.00995 459.489 2.9159 459.677 2.82184C459.865 2.72777 460.1 2.68076 460.382 2.68076C460.759 2.68076 461.135 2.77481 461.511 2.96294C461.887 3.057 462.216 3.24511 462.499 3.52729C462.781 3.80948 463.016 4.13869 463.204 4.51493C463.298 4.98524 463.345 5.50258 463.345 6.06695V6.63131H458.548C458.548 6.91349 458.595 7.19568 458.689 7.47787C458.783 7.66599 458.924 7.8541 459.113 8.04223C459.301 8.23035 459.489 8.37144 459.677 8.46551C459.865 8.65363 460.1 8.74768 460.382 8.74768C460.664 8.74768 460.947 8.70067 461.229 8.60661C461.417 8.51254 461.558 8.37145 461.652 8.18333C461.84 8.08926 461.934 7.94817 461.934 7.76005C462.028 7.66599 462.122 7.52489 462.217 7.33677H463.345ZM462.217 5.64367C462.217 5.36149 462.17 5.07932 462.076 4.79713C461.981 4.60901 461.887 4.42088 461.793 4.23275C461.605 4.04463 461.417 3.90353 461.229 3.80947C460.947 3.71541 460.712 3.66839 460.523 3.66839C460.241 3.66839 460.006 3.71541 459.818 3.80947C459.536 3.90353 459.348 4.04463 459.254 4.23275C459.066 4.42088 458.924 4.65603 458.83 4.93821C458.736 5.12633 458.689 5.36149 458.689 5.64367H462.217ZM466.308 0.42328C466.402 0.611402 466.543 0.799516 466.731 0.987638C466.92 1.17576 467.155 1.26984 467.437 1.26984C467.719 1.26984 467.954 1.17576 468.142 0.987638C468.33 0.893577 468.472 0.705463 468.566 0.42328H469.553C469.553 0.611402 469.506 0.799516 469.412 0.987638C469.318 1.26982 469.177 1.45796 468.989 1.55202C468.801 1.64608 468.566 1.74014 468.284 1.8342C468.001 1.92826 467.719 1.9753 467.437 1.9753C467.155 1.9753 466.873 1.92826 466.59 1.8342C466.308 1.74014 466.073 1.64608 465.885 1.55202C465.697 1.45796 465.556 1.26982 465.462 0.987638C465.368 0.799516 465.32 0.611402 465.32 0.42328H466.308ZM464.615 2.96294H465.744V7.90115L468.848 2.96294H470.259V9.45314H469.13V4.51493H468.989L465.885 9.45314H464.615V2.96294ZM480.417 7.19569C480.417 7.38381 480.417 7.57192 480.417 7.76005C480.323 7.94817 480.229 8.1363 480.135 8.32443C480.041 8.51255 479.947 8.65362 479.853 8.74768C479.665 8.93581 479.477 9.12394 479.289 9.31206C479.1 9.40613 478.865 9.50018 478.583 9.59424C478.301 9.6883 477.972 9.73534 477.596 9.73534C477.407 9.73534 477.219 9.6883 477.031 9.59424C476.843 9.59424 476.655 9.5472 476.467 9.45314C476.279 9.26502 476.09 9.12395 475.902 9.02989C475.714 8.84176 475.526 8.60661 475.338 8.32443C475.244 8.04224 475.15 7.76005 475.056 7.47787C474.962 7.10162 474.915 6.67836 474.915 6.20805C474.915 5.73774 475.009 5.26744 475.197 4.79713C475.291 4.32683 475.479 3.95058 475.761 3.66839C476.044 3.38621 476.373 3.15106 476.749 2.96294C477.031 2.86887 477.36 2.82184 477.737 2.82184C478.113 2.82184 478.442 2.82184 478.724 2.82184C478.912 2.9159 479.147 3.00995 479.43 3.10401C479.618 3.29214 479.759 3.43323 479.853 3.52729C479.947 3.71542 480.041 3.90355 480.135 4.09167C480.229 4.2798 480.323 4.46791 480.417 4.65603C480.417 4.84415 480.417 5.03227 480.417 5.22039H479.43C479.336 4.75008 479.195 4.37386 479.007 4.09167C478.724 3.80949 478.348 3.66839 477.878 3.66839C477.596 3.66839 477.313 3.76245 477.031 3.95057C476.843 4.04463 476.655 4.23275 476.467 4.51493C476.373 4.70305 476.279 4.93821 476.185 5.22039C476.091 5.59664 476.044 5.97288 476.044 6.34913C476.044 6.72537 476.091 7.10162 476.185 7.47787C476.279 7.76005 476.373 7.9952 476.467 8.18333C476.655 8.37145 476.843 8.51254 477.031 8.60661C477.313 8.70067 477.596 8.74768 477.878 8.74768C478.066 8.74768 478.254 8.74768 478.442 8.74768C478.536 8.65362 478.677 8.51255 478.865 8.32443C478.96 8.23037 479.053 8.08927 479.148 7.90115C479.242 7.71302 479.336 7.47787 479.43 7.19569H480.417ZM485.638 3.95057H482.675V9.45314H481.546V2.96294H486.767V9.45314H485.638V3.95057ZM487.754 2.96294H489.024L490.717 8.32443L492.551 2.96294H493.68L491.281 9.87642C491.093 10.1586 490.952 10.4408 490.858 10.723C490.764 10.9111 490.67 11.0992 490.576 11.2873C490.482 11.4755 490.388 11.6166 490.294 11.7106C490.2 11.8987 490.059 11.9928 489.87 11.9928C489.776 12.0869 489.682 12.1339 489.588 12.1339C489.4 12.1339 489.212 12.1339 489.024 12.1339C488.836 12.1339 488.695 12.1339 488.601 12.1339C488.507 12.1339 488.413 12.1339 488.319 12.1339V11.1463C488.413 11.1463 488.507 11.1463 488.601 11.1463C488.789 11.2403 488.93 11.2403 489.024 11.1463C489.212 11.1463 489.4 11.0992 489.588 11.0052C489.682 10.9111 489.776 10.77 489.87 10.5819L490.153 9.73534L487.754 2.96294ZM496.502 3.95057H494.244V2.96294H499.888V3.95057H497.631V9.45314H496.502V3.95057ZM507.225 2.96294H508.353V9.59424H507.225V2.96294ZM501.017 2.96294H502.146V5.36149H504.121C504.403 5.36149 504.685 5.40853 504.967 5.50259C505.25 5.59665 505.485 5.73773 505.673 5.92585C505.861 6.11397 506.049 6.30211 506.237 6.49023C506.331 6.77241 506.378 7.05458 506.378 7.33677C506.378 7.71301 506.331 7.9952 506.237 8.18333C506.049 8.46551 505.861 8.70066 505.673 8.88878C505.485 9.07691 505.25 9.218 504.967 9.31206C504.685 9.40613 504.403 9.45314 504.121 9.45314H501.017V2.96294ZM502.146 8.60661H503.839C504.027 8.60661 504.215 8.55957 504.403 8.46551C504.591 8.46551 504.732 8.41849 504.826 8.32443C504.92 8.23037 505.014 8.08927 505.108 7.90115C505.203 7.80709 505.25 7.66599 505.25 7.47787C505.25 7.28974 505.203 7.10163 505.108 6.91351C505.014 6.81945 504.92 6.72537 504.826 6.63131C504.638 6.53725 504.45 6.44319 504.262 6.34913C504.168 6.34913 503.98 6.34913 503.698 6.34913H502.146V8.60661ZM510.047 2.96294H512.727C513.574 2.96294 514.185 3.10403 514.562 3.38621C514.938 3.6684 515.126 4.09167 515.126 4.65603C515.126 4.93822 515.079 5.17337 514.985 5.36149C514.797 5.64367 514.609 5.83179 514.42 5.92585C514.703 6.11397 514.938 6.30211 515.126 6.49023C515.408 6.77241 515.549 7.10162 515.549 7.47787C515.549 7.76005 515.455 8.04224 515.267 8.32443C515.173 8.51255 515.032 8.70066 514.844 8.88878C514.656 9.07691 514.421 9.218 514.138 9.31206C513.762 9.40613 513.386 9.45314 513.01 9.45314H510.047V2.96294ZM511.175 8.60661H512.869C513.151 8.60661 513.386 8.55957 513.574 8.46551C513.762 8.46551 513.903 8.41849 513.997 8.32443C514.185 8.23037 514.279 8.13629 514.279 8.04223C514.373 7.8541 514.42 7.71303 514.42 7.61897C514.42 7.43085 514.373 7.28975 514.279 7.19569C514.279 7.00757 514.185 6.86647 513.997 6.77241C513.903 6.67835 513.762 6.63131 513.574 6.63131C513.386 6.53725 513.151 6.49023 512.869 6.49023H511.175V8.60661ZM511.175 5.78477H512.869C513.245 5.78477 513.527 5.69071 513.715 5.50259C513.903 5.40853 513.997 5.22039 513.997 4.93821C513.997 4.75009 513.997 4.56198 513.997 4.37385C513.903 4.27979 513.809 4.18574 513.715 4.09167C513.621 4.09167 513.48 4.04463 513.292 3.95057C513.198 3.95057 513.104 3.95057 513.01 3.95057H511.175V5.78477ZM516.819 4.93821C516.819 4.56197 516.913 4.23276 517.101 3.95057C517.195 3.66839 517.383 3.43324 517.666 3.24511C517.854 3.05699 518.136 2.96294 518.512 2.96294C518.794 2.86887 519.124 2.82184 519.5 2.82184C519.782 2.82184 520.111 2.86887 520.487 2.96294C520.77 2.96294 521.005 3.05699 521.193 3.24511C521.475 3.33918 521.663 3.52729 521.757 3.80947C521.945 3.9976 522.039 4.27979 522.039 4.65603V8.46551C522.039 8.55957 522.039 8.65362 522.039 8.74768C522.134 8.74768 522.228 8.74768 522.322 8.74768H522.463H522.745V9.45314C522.651 9.5472 522.557 9.59424 522.463 9.59424C522.369 9.59424 522.275 9.59424 522.181 9.59424C521.898 9.59424 521.71 9.59424 521.616 9.59424C521.428 9.50018 521.287 9.45314 521.193 9.45314C521.099 9.35908 521.052 9.26503 521.052 9.17096C520.958 8.98284 520.911 8.79473 520.911 8.60661C520.817 8.79473 520.676 8.93582 520.487 9.02989C520.299 9.21801 520.111 9.35908 519.923 9.45314C519.735 9.5472 519.547 9.59424 519.359 9.59424C519.077 9.6883 518.794 9.73534 518.512 9.73534C518.23 9.73534 517.995 9.6883 517.807 9.59424C517.525 9.50018 517.289 9.40613 517.101 9.31206C516.913 9.12394 516.772 8.88879 516.678 8.60661C516.584 8.41848 516.537 8.18333 516.537 7.90115C516.537 7.5249 516.584 7.19569 516.678 6.91351C516.772 6.72539 516.913 6.53725 517.101 6.34913C517.289 6.16101 517.525 6.01991 517.807 5.92585C517.995 5.83179 518.23 5.78477 518.512 5.78477L520.346 5.64367C520.534 5.54961 520.676 5.45555 520.77 5.36149C520.864 5.26743 520.911 5.07932 520.911 4.79713C520.911 4.42089 520.77 4.1387 520.487 3.95057C520.205 3.76245 519.829 3.66839 519.359 3.66839C518.888 3.66839 518.512 3.76245 518.23 3.95057C518.042 4.23276 517.901 4.56197 517.807 4.93821H516.819ZM520.911 6.20805C520.817 6.30211 520.723 6.34913 520.629 6.34913C520.44 6.44319 520.299 6.49023 520.205 6.49023C520.017 6.49023 519.829 6.49023 519.641 6.49023C519.453 6.58429 519.265 6.63131 519.077 6.63131C518.888 6.63131 518.7 6.67835 518.512 6.77241C518.418 6.77241 518.277 6.81945 518.089 6.91351C517.995 7.00757 517.901 7.10163 517.807 7.19569C517.713 7.38381 517.666 7.52491 517.666 7.61897C517.666 7.80709 517.713 7.9952 517.807 8.18333C517.901 8.27739 517.995 8.41848 518.089 8.60661C518.183 8.70067 518.277 8.74768 518.371 8.74768C518.559 8.84175 518.747 8.88878 518.935 8.88878C519.029 8.88878 519.124 8.84175 519.218 8.74768C519.406 8.74768 519.594 8.70067 519.782 8.60661C519.876 8.60661 520.017 8.55957 520.205 8.46551C520.299 8.37144 520.393 8.27739 520.487 8.18333C520.676 8.08926 520.77 7.94817 520.77 7.76005C520.864 7.57192 520.911 7.38381 520.911 7.19569V6.20805ZM529.376 7.47787C529.376 7.76005 529.282 8.04224 529.094 8.32443C529 8.60661 528.812 8.84176 528.53 9.02989C528.247 9.31207 527.965 9.50018 527.683 9.59424C527.307 9.6883 526.931 9.73534 526.554 9.73534C526.084 9.73534 525.661 9.6883 525.284 9.59424C524.908 9.40612 524.626 9.17097 524.438 8.88878C524.156 8.6066 523.921 8.27739 523.733 7.90115C523.544 7.43084 523.45 6.9135 523.45 6.34913C523.45 5.87882 523.497 5.50257 523.591 5.22039C523.685 4.84415 523.827 4.56198 524.015 4.37385C524.109 4.09167 524.297 3.85652 524.579 3.66839C524.767 3.48027 524.955 3.33918 525.143 3.24511C525.332 3.15105 525.567 3.057 525.849 2.96294C526.037 2.86887 526.225 2.82184 526.413 2.82184C526.884 2.82184 527.307 2.91589 527.683 3.10401C528.059 3.19808 528.389 3.38621 528.671 3.66839C528.953 3.95058 529.141 4.27979 529.235 4.65603C529.423 5.12634 529.517 5.64368 529.517 6.20805V6.77241H524.72C524.72 7.05459 524.767 7.33678 524.861 7.61897C524.955 7.90115 525.049 8.08926 525.143 8.18333C525.332 8.37145 525.567 8.51254 525.849 8.60661C526.037 8.79473 526.272 8.88878 526.554 8.88878C526.837 8.88878 527.072 8.84175 527.26 8.74768C527.448 8.65362 527.636 8.51255 527.824 8.32443C527.918 8.23037 528.012 8.08927 528.106 7.90115C528.2 7.80709 528.248 7.66599 528.248 7.47787H529.376ZM528.389 5.78477C528.389 5.50259 528.342 5.22039 528.248 4.93821C528.153 4.75009 528.012 4.56198 527.824 4.37385C527.73 4.18573 527.542 4.04463 527.26 3.95057C527.072 3.85651 526.837 3.80947 526.554 3.80947C526.366 3.80947 526.131 3.85651 525.849 3.95057C525.661 4.04463 525.473 4.18573 525.284 4.37385C525.096 4.56198 524.955 4.79713 524.861 5.07931C524.767 5.26743 524.72 5.50259 524.72 5.78477H528.389ZM530.787 3.10401H532.48L534.173 8.46551L536.008 3.10401H537.56V9.59424H536.431V4.37385L534.738 9.59424H533.609L531.916 4.37385V9.59424H530.787V3.10401ZM544.896 6.34913C544.896 6.9135 544.802 7.3838 544.614 7.76005C544.52 8.23035 544.332 8.6066 544.05 8.88878C543.768 9.17097 543.438 9.40612 543.062 9.59424C542.686 9.78237 542.263 9.87642 541.792 9.87642C541.322 9.87642 540.899 9.78237 540.522 9.59424C540.146 9.40612 539.817 9.17097 539.535 8.88878C539.347 8.6066 539.159 8.23035 538.971 7.76005C538.876 7.3838 538.829 6.9135 538.829 6.34913C538.829 5.78476 538.876 5.31446 538.971 4.93821C539.159 4.46791 539.347 4.09166 539.535 3.80947C539.817 3.52729 540.146 3.29214 540.522 3.10401C540.899 3.00995 541.322 2.96294 541.792 2.96294C542.263 2.96294 542.686 3.00995 543.062 3.10401C543.438 3.29214 543.768 3.52729 544.05 3.80947C544.332 4.09166 544.52 4.46791 544.614 4.93821C544.802 5.31446 544.896 5.78476 544.896 6.34913ZM543.768 6.34913C543.768 5.97288 543.72 5.64367 543.626 5.36149C543.532 5.07931 543.391 4.79712 543.203 4.51493C543.109 4.32681 542.921 4.18574 542.639 4.09167C542.451 3.90355 542.169 3.85651 541.792 3.95057C541.51 3.85651 541.228 3.90355 540.946 4.09167C540.758 4.18574 540.57 4.32681 540.381 4.51493C540.193 4.79712 540.099 5.07931 540.099 5.36149C540.005 5.64367 539.958 5.97288 539.958 6.34913C539.958 6.72537 540.005 7.05458 540.099 7.33677C540.099 7.71301 540.193 7.9952 540.381 8.18333C540.57 8.37145 540.758 8.55956 540.946 8.74768C541.228 8.84175 541.51 8.88878 541.792 8.88878C542.169 8.88878 542.451 8.84175 542.639 8.74768C542.921 8.55956 543.109 8.37145 543.203 8.18333C543.391 7.9952 543.532 7.71301 543.626 7.33677C543.72 7.05458 543.768 6.72537 543.768 6.34913ZM551.245 7.33677C551.245 7.52489 551.198 7.71302 551.104 7.90115C551.104 8.08927 551.057 8.27738 550.963 8.46551C550.869 8.65363 550.775 8.79472 550.681 8.88878C550.493 9.07691 550.305 9.26502 550.117 9.45314C549.929 9.5472 549.693 9.64128 549.411 9.73534C549.129 9.82941 548.8 9.87642 548.424 9.87642C548.235 9.87642 548.047 9.82941 547.859 9.73534C547.671 9.73534 547.483 9.6883 547.295 9.59424C547.013 9.40612 546.825 9.26503 546.731 9.17096C546.542 8.98284 546.354 8.74769 546.166 8.46551C546.072 8.18332 545.978 7.90115 545.884 7.61897C545.79 7.24272 545.743 6.81943 545.743 6.34913C545.743 5.87882 545.837 5.40852 546.025 4.93821C546.119 4.46791 546.307 4.09166 546.589 3.80947C546.872 3.52729 547.154 3.29214 547.436 3.10401C547.812 3.00995 548.188 2.96294 548.565 2.96294C548.941 2.96294 549.223 2.96294 549.411 2.96294C549.693 3.057 549.929 3.15105 550.117 3.24511C550.305 3.43324 550.493 3.57433 550.681 3.66839C550.775 3.85652 550.869 4.04463 550.963 4.23275C551.057 4.42088 551.104 4.60901 551.104 4.79713C551.198 4.98525 551.245 5.17337 551.245 5.36149H550.258C550.164 4.89118 549.976 4.51494 549.693 4.23275C549.505 3.95057 549.176 3.85651 548.706 3.95057C548.424 3.85651 548.141 3.90355 547.859 4.09167C547.671 4.18574 547.483 4.37385 547.295 4.65603C547.201 4.84415 547.107 5.07931 547.013 5.36149C546.919 5.73774 546.872 6.11398 546.872 6.49023C546.872 6.86647 546.919 7.24272 547.013 7.61897C547.107 7.90115 547.201 8.1363 547.295 8.32443C547.483 8.51255 547.671 8.65362 547.859 8.74768C548.047 8.84175 548.282 8.88878 548.565 8.88878C548.753 8.88878 548.941 8.88878 549.129 8.88878C549.317 8.79472 549.505 8.65363 549.693 8.46551C549.787 8.37144 549.881 8.23035 549.976 8.04223C550.07 7.8541 550.164 7.61895 550.258 7.33677H551.245ZM554.067 4.09167H551.81V3.10401H557.453V4.09167H555.196V9.59424H554.067V4.09167ZM558.582 3.10401H559.711V8.18333L562.956 3.10401H564.226V9.73534H563.097V4.65603L559.852 9.73534H558.582V3.10401ZM566.06 10.8641C566.342 10.77 566.53 10.5819 566.624 10.2997C566.719 10.1116 566.766 9.92347 566.766 9.73534V9.59424H566.06V8.32443H567.33V9.45314C567.33 9.92345 567.236 10.3467 567.048 10.723C566.86 11.0992 566.53 11.3344 566.06 11.4284V10.8641ZM578.194 9.59424H573.256V11.1463H572.127V8.60661H572.974C573.162 8.1363 573.303 7.71301 573.397 7.33677C573.491 6.86646 573.585 6.39616 573.679 5.92585C573.773 5.45554 573.82 4.98524 573.82 4.51493C573.82 4.04463 573.82 3.57432 573.82 3.10401H578.335V8.60661H579.323V11.1463H578.194V9.59424ZM577.206 8.60661V4.09167H574.949C574.855 4.46792 574.808 4.84415 574.808 5.22039C574.808 5.59664 574.761 5.97288 574.667 6.34913C574.573 6.81943 574.526 7.24272 574.526 7.61897C574.432 7.99521 574.29 8.32442 574.102 8.60661H577.206ZM584.825 4.09167H582.286V5.64367C582.192 6.49022 582.098 7.14866 582.003 7.61897C581.909 8.18333 581.768 8.6066 581.58 8.88878C581.486 9.26503 581.298 9.50018 581.016 9.59424C580.734 9.6883 580.451 9.78236 580.169 9.87642C580.075 9.87642 579.981 9.82941 579.887 9.73534C579.793 9.73534 579.746 9.6883 579.746 9.59424V8.60661C579.84 8.70067 579.981 8.74768 580.169 8.74768C580.263 8.74768 580.31 8.74768 580.31 8.74768C580.404 8.65362 580.498 8.60661 580.593 8.60661C580.687 8.51254 580.734 8.37145 580.734 8.18333C580.828 8.08926 580.922 7.90115 581.016 7.61897C581.016 7.33678 581.016 7.05459 581.016 6.77241C581.11 6.39616 581.157 5.9729 581.157 5.50259V3.10401H585.954V9.59424H584.825V4.09167ZM592.867 9.73534H591.739V7.05459H590.328C590.046 7.05459 589.811 7.10163 589.622 7.19569C589.434 7.19569 589.246 7.19569 589.058 7.19569C588.964 7.28975 588.87 7.38381 588.776 7.47787C588.682 7.66599 588.635 7.90114 588.635 8.18333V8.88878V9.02989C588.635 9.02989 588.588 9.0769 588.494 9.17096C588.494 9.26503 588.494 9.35908 588.494 9.45314C588.494 9.5472 588.494 9.64128 588.494 9.73534H587.224V9.59424L587.365 9.45314C587.365 9.35908 587.412 9.26503 587.506 9.17096C587.506 9.0769 587.506 8.93581 587.506 8.74768L587.647 7.90115C587.647 7.71302 587.647 7.52489 587.647 7.33677C587.647 7.24271 587.694 7.14865 587.788 7.05459C587.882 6.96053 587.976 6.86647 588.07 6.77241C588.164 6.77241 588.306 6.72537 588.494 6.63131C587.741 6.34912 587.365 5.8318 587.365 5.07931C587.365 4.89119 587.412 4.70305 587.506 4.51493C587.506 4.32681 587.553 4.18574 587.647 4.09167C587.741 3.99761 587.835 3.90353 587.929 3.80947C588.023 3.62135 588.117 3.52729 588.212 3.52729C588.306 3.43323 588.447 3.33918 588.635 3.24511C588.823 3.24511 588.964 3.24511 589.058 3.24511C589.246 3.24511 589.387 3.24511 589.481 3.24511C589.669 3.15105 589.811 3.10401 589.905 3.10401H592.867V9.73534ZM591.739 4.23275H590.046C589.858 4.23275 589.716 4.23275 589.622 4.23275C589.528 4.23275 589.434 4.23275 589.34 4.23275C589.246 4.23275 589.199 4.27979 589.199 4.37385H588.917C588.823 4.46791 588.729 4.60901 588.635 4.79713C588.541 4.89119 588.494 5.03227 588.494 5.22039C588.494 5.40851 588.541 5.59665 588.635 5.78477C588.635 5.87883 588.682 5.97289 588.776 6.06695C588.87 6.06695 588.964 6.11399 589.058 6.20805C589.152 6.20805 589.293 6.25507 589.481 6.34913C589.575 6.34913 589.669 6.34913 589.764 6.34913C589.858 6.34913 589.952 6.34913 590.046 6.34913H591.739V4.23275ZM602.18 4.23275H599.076V9.73534H597.947V3.24511H603.308V9.73534H602.18V4.23275ZM604.86 3.24511H605.989V4.23275C606.083 4.04463 606.177 3.85652 606.271 3.66839C606.365 3.57433 606.506 3.48028 606.695 3.38621C606.883 3.29215 607.071 3.19808 607.259 3.10401C607.447 3.10401 607.682 3.10401 607.964 3.10401C608.341 3.10401 608.67 3.15105 608.952 3.24511C609.234 3.43324 609.516 3.62135 609.798 3.80947C610.081 4.09166 610.269 4.46791 610.363 4.93821C610.551 5.31446 610.645 5.78476 610.645 6.34913C610.645 7.00756 610.551 7.57192 610.363 8.04223C610.269 8.51253 610.081 8.88878 609.798 9.17096C609.61 9.45315 609.328 9.64128 608.952 9.73534C608.576 9.92347 608.152 10.0175 607.682 10.0175C607.494 10.0175 607.306 9.97048 607.118 9.87642C606.93 9.87642 606.789 9.82941 606.695 9.73534C606.506 9.64128 606.365 9.5472 606.271 9.45314C606.177 9.26502 606.083 9.12395 605.989 9.02989V12.4161H604.86V3.24511ZM605.989 6.49023C605.989 6.86647 606.036 7.19568 606.13 7.47787C606.13 7.76005 606.224 8.04224 606.412 8.32443C606.506 8.51255 606.694 8.65362 606.977 8.74768C607.165 8.84175 607.4 8.88878 607.682 8.88878C608.058 8.88878 608.341 8.84175 608.529 8.74768C608.717 8.65362 608.905 8.51255 609.093 8.32443C609.187 8.04224 609.281 7.76005 609.375 7.47787C609.469 7.19568 609.516 6.86647 609.516 6.49023C609.516 6.11398 609.469 5.78477 609.375 5.50259C609.281 5.22041 609.187 4.93822 609.093 4.65603C608.905 4.46791 608.717 4.32681 608.529 4.23275C608.341 4.04463 608.058 3.95057 607.682 3.95057C607.4 3.95057 607.165 4.04463 606.977 4.23275C606.694 4.32681 606.506 4.46791 606.412 4.65603C606.224 4.93822 606.13 5.22041 606.13 5.50259C606.036 5.78477 605.989 6.11398 605.989 6.49023ZM611.915 3.24511H613.044V8.18333L616.289 3.24511H617.559V9.73534H616.43V4.65603L613.185 9.73534H611.915V3.24511ZM624.613 9.73534H619.534V11.4284H618.546V8.74768H619.393C619.581 8.37144 619.722 7.94817 619.816 7.47787C619.91 7.00756 620.004 6.53726 620.098 6.06695C620.098 5.59664 620.145 5.12634 620.239 4.65603C620.239 4.18573 620.239 3.71542 620.239 3.24511H624.754V8.74768H625.742V11.4284H624.613V9.73534ZM623.626 8.74768V4.09167H621.227C621.227 4.46792 621.227 4.84415 621.227 5.22039C621.133 5.59664 621.086 6.01992 621.086 6.49023C620.992 6.86647 620.898 7.24272 620.804 7.61897C620.804 7.99521 620.71 8.37144 620.521 8.74768H623.626ZM626.729 5.07931C626.729 4.70307 626.824 4.37386 627.012 4.09167C627.106 3.80949 627.294 3.57434 627.576 3.38621C627.764 3.19809 628.046 3.10401 628.423 3.10401C628.705 3.00995 629.034 2.96294 629.41 2.96294C629.787 2.96294 630.116 3.00995 630.398 3.10401C630.68 3.10401 630.915 3.19809 631.103 3.38621C631.386 3.48028 631.574 3.66839 631.668 3.95057C631.856 4.1387 631.95 4.42089 631.95 4.79713V8.60661C631.95 8.70067 631.95 8.79472 631.95 8.88878C632.044 8.88878 632.138 8.88878 632.232 8.88878H632.514H632.655V9.59424C632.561 9.6883 632.467 9.73534 632.373 9.73534C632.279 9.73534 632.185 9.73534 632.091 9.73534C631.903 9.73534 631.715 9.73534 631.527 9.73534C631.433 9.64128 631.339 9.59424 631.245 9.59424C631.15 9.50018 631.056 9.40613 630.962 9.31206C630.868 9.12394 630.821 8.93581 630.821 8.74768C630.727 8.93581 630.586 9.0769 630.398 9.17096C630.304 9.35909 630.116 9.50018 629.834 9.59424C629.645 9.6883 629.457 9.73534 629.269 9.73534C628.987 9.82941 628.705 9.87642 628.423 9.87642C628.235 9.87642 627.999 9.82941 627.717 9.73534C627.529 9.64128 627.341 9.5472 627.153 9.45314C626.965 9.26502 626.777 9.02987 626.588 8.74768C626.494 8.55956 626.447 8.32441 626.447 8.04223C626.447 7.66598 626.494 7.33677 626.588 7.05459C626.777 6.86647 626.918 6.67835 627.012 6.49023C627.2 6.30211 627.435 6.16101 627.717 6.06695C627.905 5.97289 628.14 5.92585 628.423 5.92585L630.257 5.78477C630.445 5.69071 630.586 5.59665 630.68 5.50259C630.774 5.40853 630.821 5.22039 630.821 4.93821C630.821 4.56197 630.68 4.2798 630.398 4.09167C630.21 3.90355 629.834 3.80947 629.269 3.80947C628.799 3.80947 628.47 3.95057 628.281 4.23275C627.999 4.42088 627.858 4.70307 627.858 5.07931H626.729ZM630.68 6.34913C630.586 6.44319 630.492 6.49023 630.398 6.49023C630.304 6.58429 630.163 6.63131 629.975 6.63131C629.787 6.63131 629.598 6.63131 629.41 6.63131C629.222 6.72537 629.034 6.77241 628.846 6.77241C628.658 6.77241 628.47 6.81945 628.281 6.91351C628.187 6.91351 628.046 6.96053 627.858 7.05459C627.764 7.14865 627.67 7.28974 627.576 7.47787C627.482 7.57193 627.435 7.66599 627.435 7.76005C627.435 7.94817 627.482 8.1363 627.576 8.32443C627.67 8.41849 627.764 8.55956 627.858 8.74768C627.952 8.84175 628.046 8.88878 628.14 8.88878C628.329 8.98285 628.517 9.02989 628.705 9.02989C628.799 9.02989 628.94 8.98285 629.128 8.88878C629.222 8.88878 629.363 8.84175 629.551 8.74768C629.645 8.74768 629.787 8.70067 629.975 8.60661C630.069 8.51254 630.21 8.41849 630.398 8.32443C630.492 8.23037 630.586 8.08927 630.68 7.90115C630.68 7.71302 630.68 7.52489 630.68 7.33677V6.34913ZM633.643 3.24511H634.772V5.78477H637.735V3.24511H638.863V9.73534H637.735V6.77241H634.772V9.73534H633.643V3.24511ZM640.557 3.24511H641.685V8.18333L644.93 3.24511H646.2V9.73534H645.071V4.79713L641.826 9.73534H640.557V3.24511ZM653.255 9.87642H652.126V7.19569H650.574C650.386 7.19569 650.151 7.19569 649.869 7.19569C649.68 7.19569 649.539 7.24271 649.445 7.33677C649.351 7.43083 649.257 7.52491 649.163 7.61897C649.069 7.80709 649.022 8.04224 649.022 8.32443L648.881 8.88878V9.02989C648.881 9.12395 648.881 9.218 648.881 9.31206C648.881 9.40613 648.881 9.50018 648.881 9.59424C648.881 9.6883 648.834 9.78236 648.74 9.87642H647.47L647.611 9.73534L647.752 9.59424C647.752 9.50018 647.752 9.40613 647.752 9.31206C647.752 9.218 647.799 9.07691 647.893 8.88878V8.04223C647.893 7.8541 647.94 7.66599 648.034 7.47787C648.034 7.38381 648.081 7.28975 648.176 7.19569C648.176 7.10163 648.27 7.00757 648.458 6.91351C648.552 6.81945 648.646 6.77241 648.74 6.77241C648.081 6.49022 647.752 5.97288 647.752 5.22039C647.752 5.03227 647.752 4.84415 647.752 4.65603C647.846 4.46791 647.94 4.32681 648.034 4.23275C648.128 4.04463 648.223 3.90353 648.317 3.80947C648.411 3.71541 648.505 3.66839 648.599 3.66839C648.693 3.57433 648.834 3.48028 649.022 3.38621C649.116 3.38621 649.257 3.38621 649.445 3.38621C649.633 3.29215 649.775 3.24511 649.869 3.24511C650.057 3.24511 650.198 3.24511 650.292 3.24511H653.255V9.87642ZM652.126 4.37385H650.292C650.198 4.37385 650.104 4.37385 650.01 4.37385C649.916 4.37385 649.822 4.37385 649.728 4.37385C649.633 4.37385 649.539 4.37385 649.445 4.37385L649.304 4.51493C649.116 4.60899 648.975 4.75009 648.881 4.93821C648.881 5.03227 648.881 5.17337 648.881 5.36149C648.881 5.54961 648.881 5.69071 648.881 5.78477C648.975 5.97289 649.069 6.06695 649.163 6.06695C649.257 6.16101 649.351 6.25507 649.445 6.34913C649.539 6.34913 649.633 6.34913 649.728 6.34913C649.822 6.44319 649.916 6.49023 650.01 6.49023C650.198 6.49023 650.292 6.49023 650.292 6.49023H652.126V4.37385ZM6.06693 20.8816C6.06693 21.446 5.97285 21.9163 5.78473 22.2925C5.69067 22.7628 5.50251 23.1391 5.22033 23.4212C4.93814 23.7034 4.609 23.9386 4.23275 24.1267C3.85651 24.3148 3.4332 24.4089 2.96289 24.4089C2.49259 24.4089 2.06928 24.3148 1.69303 24.1267C1.31679 23.9386 0.987642 23.7034 0.705459 23.4212C0.517336 23.1391 0.32918 22.7628 0.141057 22.2925C0.0469961 21.9163 0 21.446 0 20.8816C0 20.3172 0.0469961 19.8469 0.141057 19.4707C0.32918 19.0004 0.517336 18.6241 0.705459 18.3419C0.987642 18.0597 1.31679 17.8246 1.69303 17.6365C2.06928 17.4483 2.49259 17.3543 2.96289 17.3543C3.4332 17.3543 3.85651 17.4483 4.23275 17.6365C4.609 17.8246 4.93814 18.0597 5.22033 18.3419C5.50251 18.6241 5.69067 19.0004 5.78473 19.4707C5.97285 19.8469 6.06693 20.3172 6.06693 20.8816ZM4.93821 20.8816C4.93821 20.5053 4.89113 20.1761 4.79707 19.8939C4.70301 19.6118 4.56193 19.3296 4.37381 19.0474C4.27975 18.8593 4.09159 18.7182 3.80941 18.6241C3.62129 18.436 3.33914 18.3419 2.96289 18.3419C2.68071 18.3419 2.39856 18.436 2.11638 18.6241C1.92825 18.7182 1.7401 18.8593 1.55197 19.0474C1.36385 19.3296 1.26977 19.6118 1.26977 19.8939C1.17571 20.1761 1.12872 20.5053 1.12872 20.8816C1.12872 21.2578 1.17571 21.587 1.26977 21.8692C1.26977 22.1514 1.36385 22.4336 1.55197 22.7158C1.7401 22.9039 1.92825 23.045 2.11638 23.1391C2.39856 23.3272 2.68071 23.4212 2.96289 23.4212C3.33914 23.4212 3.62129 23.3272 3.80941 23.1391C4.09159 23.045 4.27975 22.9039 4.37381 22.7158C4.56193 22.4336 4.70301 22.1514 4.79707 21.8692C4.89113 21.587 4.93821 21.2578 4.93821 20.8816ZM12.4161 15.0968C12.4161 15.1909 12.369 15.285 12.2749 15.379C12.2749 15.4731 12.2749 15.5671 12.2749 15.6612C12.1809 15.7553 12.1339 15.8493 12.1339 15.9434C12.0398 16.0374 11.9457 16.1315 11.8517 16.2256L11.5695 16.3667C11.5695 16.3667 11.5225 16.3667 11.4284 16.3667C11.3343 16.3667 11.2403 16.4137 11.1462 16.5077C10.9581 16.5077 10.77 16.5077 10.5819 16.5077H10.1585C9.87635 16.5077 9.5942 16.5548 9.31202 16.6488C9.02984 16.7429 8.79468 16.931 8.60656 17.2132C8.41844 17.4013 8.27737 17.6365 8.1833 17.9186C7.99518 18.2008 7.9011 18.5301 7.9011 18.9063C7.99516 18.8122 8.08924 18.6712 8.1833 18.483C8.27737 18.2949 8.41844 18.1538 8.60656 18.0597C8.79468 17.9657 9.02984 17.8716 9.31202 17.7776C9.5942 17.6835 9.87635 17.6365 10.1585 17.6365C10.5348 17.6365 10.9111 17.6835 11.2873 17.7776C11.5695 17.9657 11.8517 18.2008 12.1339 18.483C12.416 18.7652 12.6042 19.0944 12.6983 19.4707C12.8864 19.8469 12.9804 20.3172 12.9804 20.8816C12.9804 20.9756 12.9804 21.1638 12.9804 21.4459C12.9804 21.7281 12.9334 21.9633 12.8393 22.1514C12.7453 22.4336 12.6512 22.7158 12.5571 22.998C12.369 23.2801 12.1809 23.5153 11.9928 23.7034C11.7106 23.8915 11.4284 24.0326 11.1462 24.1267C10.77 24.3148 10.3937 24.4089 10.0175 24.4089C9.82936 24.4089 9.5942 24.3618 9.31202 24.2678C9.1239 24.2678 8.93574 24.2208 8.74762 24.1267C8.5595 24.0326 8.37143 23.9386 8.1833 23.8445C7.99518 23.6564 7.80703 23.4683 7.6189 23.2801C7.52484 23.092 7.43076 22.9509 7.3367 22.8569C7.24264 22.6687 7.19564 22.4806 7.19564 22.2925C7.10158 22.1044 7.00751 21.8692 6.91344 21.587C6.91344 21.3049 6.91344 20.9286 6.91344 20.4583C6.91344 20.2702 6.91344 19.988 6.91344 19.6118C7.00751 19.3296 7.05459 19.0004 7.05459 18.6241C7.14865 18.2479 7.24264 17.9187 7.3367 17.6365C7.43076 17.3543 7.57192 17.0721 7.76005 16.7899C7.94817 16.5077 8.13624 16.3196 8.32436 16.2256C8.51248 16.0374 8.70064 15.8963 8.88876 15.8023C9.07689 15.7082 9.31204 15.6142 9.59422 15.5201C9.78234 15.5201 10.0175 15.5201 10.2997 15.5201H10.7229C10.817 15.5201 10.9111 15.5201 11.0051 15.5201C11.0992 15.5201 11.1933 15.4731 11.2873 15.379H11.4284C11.4284 15.285 11.4754 15.1909 11.5695 15.0968H12.4161ZM8.04216 21.0227C8.04216 21.1167 8.04216 21.2578 8.04216 21.4459C8.04216 21.6341 8.08924 21.8222 8.1833 22.0103C8.1833 22.1984 8.2303 22.3395 8.32436 22.4336C8.41842 22.6217 8.5125 22.8098 8.60656 22.998C8.79468 23.092 8.98284 23.1861 9.17096 23.2801C9.35909 23.3742 9.59424 23.4212 9.87642 23.4212C10.2527 23.4212 10.5348 23.3742 10.7229 23.2801C11.0051 23.1861 11.1933 23.045 11.2873 22.8569C11.4755 22.6687 11.5695 22.4806 11.5695 22.2925C11.6635 22.1044 11.7576 21.9163 11.8517 21.7281C11.8517 21.54 11.8517 21.3989 11.8517 21.3049C11.8517 21.1167 11.8517 20.9756 11.8517 20.8816C11.8517 20.5994 11.8047 20.3172 11.7106 20.035C11.7106 19.7528 11.6165 19.5177 11.4284 19.3296C11.2403 19.0474 11.0521 18.8593 10.864 18.7652C10.5818 18.5771 10.2997 18.483 10.0175 18.483C9.64124 18.483 9.35909 18.5771 9.17096 18.7652C8.88878 18.8593 8.65363 19.0474 8.46551 19.3296C8.37144 19.5177 8.27737 19.7528 8.1833 20.035C8.08924 20.3172 8.04216 20.6464 8.04216 21.0227ZM15.6611 18.6241H13.5448V17.6365H16.7899V20.035H18.483C18.8592 20.035 19.1885 20.0821 19.4706 20.1761C19.7528 20.2702 19.988 20.4113 20.1761 20.5994C20.3642 20.7875 20.5523 21.0227 20.7404 21.3049C20.8345 21.493 20.8816 21.7752 20.8816 22.1514C20.8816 22.4336 20.8345 22.7158 20.7404 22.998C20.6464 23.1861 20.4583 23.3742 20.1761 23.5623C19.988 23.7504 19.7528 23.8915 19.4706 23.9856C19.1885 24.0797 18.9062 24.1267 18.624 24.1267H15.6611V18.6241ZM16.7899 23.2801H18.3419C18.5301 23.2801 18.7181 23.2801 18.9062 23.2801C19.0944 23.1861 19.2354 23.092 19.3295 22.998C19.4236 22.9039 19.5176 22.8098 19.6117 22.7158C19.7058 22.5277 19.7528 22.3395 19.7528 22.1514C19.7528 21.9633 19.7058 21.7752 19.6117 21.587C19.5176 21.493 19.4236 21.3989 19.3295 21.3049C19.2354 21.2108 19.0944 21.1638 18.9062 21.1638C18.7181 21.0697 18.483 21.0227 18.2008 21.0227H16.7899V23.2801ZM27.5129 22.1514C27.4188 22.4336 27.2777 22.7158 27.0895 22.998C26.9955 23.1861 26.8074 23.4212 26.5252 23.7034C26.3371 23.8915 26.0549 24.0326 25.6786 24.1267C25.3964 24.3148 25.0202 24.4089 24.5499 24.4089C24.1737 24.4089 23.7974 24.3148 23.4212 24.1267C23.045 24.0326 22.7157 23.8445 22.4335 23.5623C22.1514 23.2801 21.9162 22.9039 21.7281 22.4336C21.634 21.9633 21.587 21.446 21.587 20.8816C21.587 20.5053 21.634 20.1291 21.7281 19.7528C21.8221 19.4707 21.9162 19.1885 22.0103 18.9063C22.1984 18.6241 22.3866 18.389 22.5747 18.2008C22.7628 18.1068 22.9509 17.9657 23.139 17.7776C23.4212 17.6835 23.6563 17.5895 23.8445 17.4954C24.0326 17.4954 24.2677 17.4954 24.5499 17.4954C24.9262 17.4954 25.3024 17.5424 25.6786 17.6365C26.0549 17.8246 26.3841 18.0127 26.6663 18.2008C26.9485 18.483 27.1366 18.8593 27.2307 19.3296C27.4188 19.7058 27.5129 20.1761 27.5129 20.7405V21.3049H22.7157C22.7157 21.587 22.7627 21.8692 22.8568 22.1514C22.9509 22.4336 23.092 22.6687 23.2801 22.8569C23.3742 23.045 23.5623 23.1861 23.8445 23.2801C24.0326 23.3742 24.2677 23.4212 24.5499 23.4212C24.8321 23.4212 25.0672 23.3742 25.2554 23.2801C25.5376 23.1861 25.7257 23.092 25.8198 22.998C25.9138 22.9039 26.0079 22.7628 26.102 22.5747C26.196 22.3866 26.29 22.2455 26.3841 22.1514H27.5129ZM26.3841 20.4583C26.3841 20.0821 26.3371 19.7999 26.243 19.6118C26.149 19.3296 26.0549 19.0944 25.9608 18.9063C25.7727 18.7182 25.5846 18.6241 25.3965 18.6241C25.1143 18.53 24.8792 18.483 24.6911 18.483C24.4089 18.483 24.1266 18.53 23.8445 18.6241C23.6563 18.7182 23.4683 18.8593 23.2801 19.0474C23.1861 19.2355 23.092 19.4236 22.9979 19.6118C22.9039 19.894 22.8098 20.1761 22.7157 20.4583H26.3841ZM28.9238 17.6365H30.4758L32.31 22.998L34.0031 17.6365H35.5551V24.1267H34.5675V18.9063H34.4263L32.7332 24.1267H31.7456L29.9114 18.9063V24.1267H28.9238V17.6365ZM37.2482 19.6118C37.2482 19.2355 37.2953 18.9063 37.3893 18.6241C37.5774 18.3419 37.7655 18.1068 37.9536 17.9186C38.2358 17.8246 38.518 17.7305 38.8002 17.6365C39.1765 17.5424 39.5527 17.4954 39.9289 17.4954C40.2111 17.4954 40.4933 17.5424 40.7755 17.6365C41.0576 17.6365 41.3399 17.7305 41.6221 17.9186C41.8102 18.0127 41.9983 18.2008 42.1864 18.483C42.2804 18.6712 42.3275 18.9533 42.3275 19.3296V23.1391C42.3275 23.2331 42.3745 23.3272 42.4686 23.4212C42.5626 23.4212 42.6567 23.4212 42.7508 23.4212H42.8918H43.033V24.2678C42.9389 24.2678 42.8448 24.2678 42.7508 24.2678C42.7508 24.2678 42.6567 24.2678 42.4686 24.2678C42.2805 24.2678 42.1394 24.2678 42.0453 24.2678C41.8572 24.2678 41.7161 24.2208 41.6221 24.1267C41.528 24.0326 41.4809 23.9386 41.4809 23.8445C41.3869 23.6564 41.3399 23.5153 41.3399 23.4212C41.1517 23.5153 41.0107 23.6564 40.9166 23.8445C40.7285 23.9386 40.5403 24.0326 40.3522 24.1267C40.1641 24.2208 39.9289 24.3148 39.6467 24.4089C39.4586 24.4089 39.2235 24.4089 38.9413 24.4089C38.6591 24.4089 38.424 24.3618 38.2358 24.2678C37.9536 24.1737 37.7185 24.0797 37.5304 23.9856C37.3423 23.7975 37.2012 23.6094 37.1071 23.4212C37.0131 23.1391 36.966 22.8569 36.966 22.5747C36.966 22.1984 37.0131 21.9163 37.1071 21.7281C37.2012 21.446 37.3423 21.2108 37.5304 21.0227C37.7185 20.8346 37.9066 20.6935 38.0948 20.5994C38.377 20.5994 38.6591 20.5524 38.9413 20.4583L40.7755 20.3172C40.8695 20.2232 40.9636 20.1291 41.0577 20.035C41.2458 19.941 41.3399 19.7529 41.3399 19.4707C41.3399 19.0944 41.1988 18.8122 40.9166 18.6241C40.6344 18.436 40.2581 18.3419 39.7878 18.3419C39.3175 18.3419 38.9413 18.483 38.6591 18.7652C38.3769 18.9533 38.2358 19.2355 38.2358 19.6118H37.2482ZM41.3399 20.8816C41.2458 20.9756 41.1047 21.0227 40.9166 21.0227C40.8225 21.1167 40.6814 21.1638 40.4933 21.1638C40.3992 21.1638 40.2581 21.2108 40.07 21.3049C39.8819 21.3049 39.6938 21.3049 39.5057 21.3049C39.3176 21.3049 39.1294 21.3519 38.9413 21.4459C38.7532 21.54 38.6121 21.587 38.518 21.587C38.3299 21.6811 38.2358 21.8222 38.2358 22.0103C38.1418 22.1044 38.0948 22.2455 38.0948 22.4336C38.0948 22.6217 38.1418 22.7628 38.2358 22.8569C38.2358 23.045 38.2828 23.1861 38.3769 23.2801C38.4709 23.3742 38.6121 23.4212 38.8002 23.4212C38.9884 23.5153 39.1294 23.5623 39.2235 23.5623C39.4116 23.5623 39.5527 23.5153 39.6467 23.4212C39.8349 23.4212 39.9759 23.4212 40.07 23.4212C40.2581 23.3272 40.3992 23.2331 40.4933 23.1391C40.6814 23.045 40.8225 22.9509 40.9166 22.8569C41.0107 22.7628 41.1047 22.6217 41.1987 22.4336C41.2928 22.3395 41.3399 22.1984 41.3399 22.0103V20.8816ZM47.689 17.6365H48.8177V22.5747L52.0628 17.6365H53.3327V24.1267H52.2039V19.1885L48.9588 24.1267H47.689V17.6365ZM60.2461 18.6241H57.9887V17.6365H63.6323V18.6241H61.3749V24.1267H60.2461V18.6241ZM70.2637 22.1514C70.2637 22.4336 70.1696 22.7158 69.9815 22.998C69.7934 23.2801 69.6052 23.5153 69.4171 23.7034C69.1349 23.8915 68.8527 24.0797 68.5706 24.2678C68.1943 24.3618 67.8181 24.4089 67.4418 24.4089C66.9715 24.4089 66.5482 24.3618 66.172 24.2678C65.7957 24.0797 65.4665 23.8445 65.1843 23.5623C64.9962 23.2801 64.8081 22.9039 64.62 22.4336C64.4319 22.0574 64.3378 21.54 64.3378 20.8816C64.3378 20.5053 64.3848 20.1761 64.4789 19.8939C64.5729 19.5177 64.7141 19.2355 64.9022 19.0474C64.9963 18.7652 65.1373 18.5301 65.3255 18.3419C65.5136 18.1538 65.7487 18.0127 66.0309 17.9186C66.219 17.7305 66.4071 17.6365 66.5952 17.6365C66.8774 17.5424 67.1126 17.4954 67.3007 17.4954C67.771 17.4954 68.1943 17.5894 68.5706 17.7776C68.9468 17.8716 69.276 18.0597 69.5582 18.3419C69.7463 18.6241 69.9344 18.9533 70.1225 19.3296C70.3107 19.7999 70.4047 20.2702 70.4047 20.7405V21.3049H65.6077C65.6077 21.6811 65.6547 22.0103 65.7487 22.2925C65.8428 22.4806 65.9369 22.6687 66.0309 22.8569C66.219 23.045 66.4071 23.1861 66.5952 23.2801C66.8774 23.3742 67.1597 23.4212 67.4418 23.4212C67.724 23.4212 67.9592 23.3742 68.1473 23.2801C68.3354 23.2801 68.5235 23.1861 68.7116 22.998C68.8057 22.9039 68.8998 22.7628 68.9938 22.5747C69.0879 22.4806 69.135 22.3395 69.135 22.1514H70.2637ZM69.276 20.4583C69.276 20.1761 69.229 19.894 69.135 19.6118C69.0409 19.3296 68.8997 19.1414 68.7116 19.0474C68.6176 18.8593 68.4295 18.7182 68.1473 18.6241C67.9592 18.53 67.724 18.483 67.4418 18.483C67.1597 18.483 66.9245 18.53 66.7364 18.6241C66.5483 18.7182 66.3601 18.8593 66.172 19.0474C65.9839 19.2355 65.8428 19.4236 65.7487 19.6118C65.6547 19.894 65.6077 20.1761 65.6077 20.4583H69.276ZM71.6746 17.7776H72.8033V20.8816L76.1895 17.7776H77.6005L74.4964 20.5994L77.6005 24.2678H76.1895L73.6498 21.3049L72.8033 22.0103V24.2678H71.6746V17.7776ZM83.6674 22.0103C83.6674 22.1044 83.6674 22.2455 83.6674 22.4336C83.5733 22.6217 83.4793 22.8098 83.3852 22.998C83.2911 23.1861 83.1971 23.3742 83.103 23.5623C82.9149 23.7504 82.7268 23.8915 82.5387 23.9856C82.3506 24.1737 82.1154 24.3148 81.8332 24.4089C81.551 24.4089 81.2218 24.4089 80.8456 24.4089C80.6574 24.4089 80.4693 24.4089 80.2812 24.4089C80.093 24.4089 79.905 24.3148 79.7168 24.1267C79.5287 24.0326 79.3406 23.8915 79.1524 23.7034C78.9643 23.5153 78.7762 23.3272 78.588 23.1391C78.494 22.8569 78.4 22.5276 78.3059 22.1514C78.2119 21.8692 78.1648 21.493 78.1648 21.0227C78.1648 20.4583 78.2589 19.988 78.447 19.6118C78.541 19.1415 78.7292 18.7652 79.0114 18.483C79.2936 18.2008 79.6227 17.9657 79.999 17.7776C80.2811 17.5894 80.6104 17.4954 80.9866 17.4954C81.3629 17.4954 81.6921 17.5424 81.9743 17.6365C82.1624 17.7305 82.3506 17.8246 82.5387 17.9186C82.8209 18.1068 83.0089 18.2479 83.103 18.3419C83.1971 18.5301 83.2911 18.7182 83.3852 18.9063C83.4793 19.0944 83.5733 19.2825 83.6674 19.4707C83.6674 19.6588 83.6674 19.7999 83.6674 19.8939H82.6797C82.5857 19.5177 82.3975 19.1885 82.1153 18.9063C81.9272 18.6241 81.5981 18.483 81.1278 18.483C80.8456 18.483 80.5633 18.5771 80.2812 18.7652C80.093 18.8593 79.905 19.0004 79.7168 19.1885C79.6228 19.4707 79.5287 19.7528 79.4346 20.035C79.3406 20.4113 79.2935 20.7875 79.2935 21.1638C79.2935 21.54 79.3406 21.9163 79.4346 22.2925C79.5287 22.5747 79.6228 22.8098 79.7168 22.998C79.905 23.1861 80.093 23.3272 80.2812 23.4212C80.5633 23.5153 80.8456 23.5623 81.1278 23.5623C81.3159 23.5623 81.457 23.5153 81.551 23.4212C81.7391 23.4212 81.9272 23.3272 82.1153 23.1391C82.2094 23.045 82.3035 22.9039 82.3975 22.7158C82.4916 22.4336 82.5857 22.1984 82.6797 22.0103H83.6674ZM86.4892 18.7652H84.2317V17.7776H89.8754V18.7652H87.6179V24.2678H86.4892V18.7652ZM90.2987 17.7776H91.5685L93.2616 23.1391L95.0958 17.7776H96.2245L93.826 24.55C93.6379 24.9262 93.4967 25.2554 93.4027 25.5376C93.3086 25.7257 93.2146 25.9139 93.1206 26.102C93.0265 26.2901 92.9324 26.4312 92.8384 26.5253C92.7443 26.6193 92.6032 26.7134 92.4151 26.8074C92.321 26.9015 92.1799 26.9485 91.9918 26.9485C91.8977 26.9485 91.7566 26.9485 91.5685 26.9485C91.3804 26.9485 91.2393 26.9485 91.1452 26.9485C91.0512 26.9485 90.9571 26.9485 90.863 26.9485V25.8198C90.9571 25.9139 91.0512 25.9609 91.1452 25.9609C91.3334 25.9609 91.4744 25.9609 91.5685 25.9609C91.7566 25.9609 91.8977 25.9139 91.9918 25.8198C92.1799 25.7257 92.321 25.5846 92.4151 25.3965L92.6972 24.55L90.2987 17.7776ZM97.2122 17.7776H98.3409V18.6241C98.4349 18.436 98.529 18.2949 98.6231 18.2008C98.7171 18.1068 98.8582 18.0127 99.0463 17.9186C99.1404 17.7305 99.3286 17.6365 99.6107 17.6365C99.7989 17.5424 100.034 17.4954 100.316 17.4954C100.598 17.4954 100.928 17.5894 101.304 17.7776C101.586 17.8716 101.868 18.0597 102.15 18.3419C102.338 18.6241 102.527 18.9533 102.715 19.3296C102.903 19.7058 102.997 20.1761 102.997 20.7405C102.997 21.3989 102.903 21.9633 102.715 22.4336C102.621 22.9039 102.433 23.2801 102.15 23.5623C101.868 23.9386 101.586 24.1737 101.304 24.2678C100.928 24.3618 100.504 24.4089 100.034 24.4089C99.8459 24.4089 99.6578 24.4089 99.4697 24.4089C99.2816 24.3148 99.0934 24.2208 98.9053 24.1267C98.8112 24.0326 98.7171 23.9386 98.6231 23.8445C98.529 23.7505 98.4349 23.6564 98.3409 23.5623V26.8074H97.2122V17.7776ZM98.3409 21.1638C98.3409 21.4459 98.3409 21.7752 98.3409 22.1514C98.4349 22.4336 98.5761 22.6687 98.7642 22.8569C98.8583 23.045 98.9994 23.2331 99.1875 23.4212C99.4697 23.5153 99.7518 23.5623 100.034 23.5623C100.316 23.5623 100.598 23.5153 100.881 23.4212C101.069 23.2331 101.257 23.045 101.445 22.8569C101.539 22.6687 101.633 22.4336 101.727 22.1514C101.821 21.7752 101.868 21.4459 101.868 21.1638C101.868 20.7875 101.821 20.4113 101.727 20.035C101.633 19.7528 101.539 19.5177 101.445 19.3296C101.257 19.0474 101.069 18.8593 100.881 18.7652C100.598 18.6711 100.316 18.6241 100.034 18.6241C99.7518 18.6241 99.4697 18.6711 99.1875 18.7652C98.9994 18.8593 98.8583 19.0474 98.7642 19.3296C98.5761 19.5177 98.4349 19.7528 98.3409 20.035C98.3409 20.4113 98.3409 20.7875 98.3409 21.1638ZM110.475 17.7776H111.604V24.2678H110.475V17.7776ZM104.267 17.7776H105.395V20.3172H107.23C107.606 20.3172 107.935 20.3642 108.217 20.4583C108.499 20.5524 108.735 20.6935 108.923 20.8816C109.111 21.0697 109.252 21.2578 109.346 21.4459C109.534 21.7281 109.628 22.0103 109.628 22.2925C109.628 22.6687 109.534 22.9509 109.346 23.1391C109.252 23.4212 109.111 23.6564 108.923 23.8445C108.735 24.0326 108.499 24.1737 108.217 24.2678C107.935 24.3618 107.606 24.4089 107.23 24.4089H104.267V17.7776ZM105.395 23.4212H107.089C107.277 23.4212 107.465 23.3742 107.653 23.2801C107.841 23.2801 107.982 23.2331 108.076 23.1391C108.17 23.045 108.264 22.9039 108.358 22.7158C108.453 22.6217 108.5 22.4806 108.5 22.2925C108.5 22.0103 108.453 21.8222 108.358 21.7281C108.264 21.54 108.17 21.3989 108.076 21.3049C107.888 21.2108 107.7 21.1638 107.512 21.1638C107.324 21.1638 107.136 21.1638 106.948 21.1638H105.395V23.4212Z" fill="white"/>
</svg>
