<svg width="200" height="33" viewBox="0 0 200 33" fill="none" xmlns="http://www.w3.org/2000/svg">
<path fill-rule="evenodd" clip-rule="evenodd" d="M0 0L14.2438 0C18.0806 0 20.8143 1.10306 22.4449 3.30918C23.404 4.74796 23.8836 6.33062 23.8836 8.05715C23.8836 10.1674 23.2602 11.8939 22.0132 13.2367C21.4377 13.9082 20.5745 14.5316 19.4235 15.1071C21.15 15.7786 22.3969 16.498 23.1643 17.2653C24.6989 18.7041 25.4663 20.6704 25.4663 23.1643C25.4663 25.2745 24.7949 27.1929 23.452 28.9194C21.4377 31.5092 18.2724 32.8041 13.9561 32.8041H0L0 0ZM14.1 29.0633C16.7857 29.0633 18.7041 28.2959 19.8551 26.7612C20.6224 25.7061 21.0061 24.5072 21.0061 23.1643C21.0061 20.7663 19.951 19.1357 17.8408 18.2725C16.6897 17.7929 15.155 17.5531 13.2367 17.5531H4.46017V29.0633H14.1ZM12.5173 13.9561C14.4356 13.9561 15.9224 13.6684 16.9775 13.0929C18.6081 12.3255 19.4235 10.8388 19.4235 8.63266C19.4235 6.52245 18.5601 5.08368 16.8336 4.31633C15.8744 3.93265 14.3877 3.74082 12.3734 3.74082H4.46017V13.9561H12.5173ZM39.4224 0L63.45 0V4.02857H43.7387V14.1H61.8673V17.8408H43.7387V28.9194H63.7377V32.948H39.4224V0ZM78.4133 0L93.6643 0C96.1581 0 98.2204 0.335716 99.851 1.00714C102.92 2.44592 104.455 5.03572 104.455 8.77654C104.455 10.7908 104.023 12.4214 103.16 13.6684C102.393 14.9153 101.29 15.9225 99.851 16.6898C101.098 17.1694 102.057 17.8408 102.729 18.7041C103.4 19.5674 103.736 20.9582 103.736 22.8765L103.88 27.3367C103.975 28.5837 104.119 29.4949 104.311 30.0704C104.503 31.1255 104.983 31.797 105.75 32.0847V32.8041H100.283C100.091 32.5163 99.9469 32.1806 99.851 31.797C99.7551 31.3174 99.7071 30.4541 99.7071 29.2072L99.4194 23.5959C99.3234 21.4857 98.5081 20.0469 96.9734 19.2796C96.1102 18.8959 94.7673 18.7041 92.9449 18.7041H82.8734V32.8041H78.4133V0ZM93.0887 15.1071C95.1989 15.1071 96.8775 14.6755 98.1244 13.8123C99.2754 13.0449 99.851 11.5582 99.851 9.35205C99.851 6.95408 99.0356 5.37143 97.405 4.60408C96.4458 4.12449 95.1989 3.8847 93.6643 3.8847H82.8734V15.1071H93.0887ZM119.131 0L123.591 0V29.0633H140.281V32.948H119.131V0ZM153.949 0L158.409 0V32.8041H153.949V0ZM173.948 0L179.271 0L195.817 26.7612V0L199.99 0V32.948H195.098L178.264 6.33062V32.948H173.948V0Z" fill="white"/>
</svg>
