<svg width="323" height="201" viewBox="0 0 323 201" fill="none" xmlns="http://www.w3.org/2000/svg">
<rect x="0.5" y="0.5" width="322" height="200" rx="24.5" fill="white" stroke="#FA4600"/>
<path d="M172.973 55.5059L177.728 53.3085L201.604 104.001L196.849 106.199L172.973 55.5059ZM194.989 55.5059L199.743 53.3085L223.62 104.001L218.865 106.199L194.989 55.5059ZM243.982 41.1974L248.736 39L252.561 47.1252L247.806 49.3226L243.982 41.1974ZM233.232 54.0239L263 54.1772V59.1852L238.4 59.083V75.18L262.69 75.2822V80.2902L238.297 80.188L238.193 100.373L262.587 100.475V105.483L233.025 105.33L233.232 54.0239ZM154.316 53.2063L178.968 105.483H173.231L164.911 88.2621H142.12L133.903 105.483H128.011L153.024 53.2063H154.316ZM153.645 64.2954L144.601 83.2541H162.689L153.645 64.2954ZM60 105.432L67.597 53.1552H68.4756L89.9746 96.0295L111.267 53.1552H112.094L119.691 105.432H114.523L109.303 68.0258L90.5947 105.432H89.251L70.336 67.7192L65.1164 105.432H60ZM63.2559 134.714V135.684C64.0311 133.487 65.8399 131.903 68.6823 131.903C72.4033 131.903 74.1087 134.305 74.1087 137.677V147.336H72.9201V137.882C72.9201 135.071 71.6798 132.925 68.4239 132.925C65.7882 132.925 64.0827 134.662 63.5143 137.064C63.3592 137.78 63.2559 138.546 63.2559 139.722V147.336H62.0672V126.435H63.2559V134.765V134.714ZM101.344 139.313C99.1219 139.977 96.693 139.619 94.5224 140.59C93.3854 141.101 92.7136 142.072 92.7136 143.35C92.7136 145.394 94.2123 146.62 96.6413 146.62C99.8972 146.62 102.326 144.372 102.326 141.357V138.699C101.964 139.006 101.809 139.108 101.293 139.262H101.344V139.313ZM105.427 147.233C105.013 147.387 104.703 147.438 104.187 147.438C102.843 147.438 102.429 146.825 102.429 144.934V144.218C101.137 146.671 99.3804 147.847 96.4863 147.847C93.3338 147.847 91.4733 146.314 91.4733 143.656C91.4733 140.233 94.3674 139.262 97.3131 139.057C101.293 138.751 101.758 138.648 102.171 138.035C102.378 137.78 102.378 137.166 102.378 136.451C102.378 134.203 100.879 132.976 98.0884 132.976C95.2976 132.976 93.7472 134.356 93.4888 137.013H92.3518C92.5586 133.743 94.6258 132.005 98.1917 132.005C100.156 132.005 101.758 132.567 102.688 133.64C103.566 134.662 103.566 135.889 103.566 137.115V144.883C103.566 145.752 103.566 146.518 104.652 146.518C104.91 146.518 105.065 146.518 105.427 146.416V147.233ZM123.412 147.336H122.223V132.312H123.412V147.336ZM123.412 129.399H122.223V126.435H123.412V129.399ZM148.89 133.385H148.425C146.719 133.385 145.221 134.1 144.239 135.429C142.998 137.064 142.947 138.904 142.947 140.846V147.336H141.758V132.312H142.947V136.247C144.084 133.283 145.841 132.158 148.89 132.158V133.385ZM171.319 147.796C166.668 147.796 164.342 144.218 164.342 139.875C164.342 135.02 167.133 131.852 171.474 131.852C174.989 131.852 177.314 133.743 177.676 136.911H176.487C176.177 134.458 174.265 132.874 171.526 132.874C167.908 132.874 165.583 135.582 165.583 139.824C165.583 144.065 167.857 146.774 171.319 146.774C174.213 146.774 176.281 144.985 176.642 142.021H177.831C177.366 145.649 174.989 147.745 171.371 147.745H171.319V147.796ZM204.291 139.466C202.069 140.13 199.64 139.773 197.469 140.744C196.333 141.255 195.661 142.226 195.661 143.503C195.661 145.547 197.159 146.774 199.64 146.774C202.896 146.774 205.325 144.525 205.325 141.51V138.853C204.963 139.159 204.808 139.262 204.291 139.415V139.466ZM208.374 147.387C207.961 147.54 207.65 147.591 207.134 147.591C205.79 147.591 205.377 146.978 205.377 145.087V144.372C204.085 146.825 202.327 148 199.433 148C196.281 148 194.42 146.467 194.42 143.81C194.42 140.386 197.314 139.415 200.26 139.211C204.24 138.904 204.705 138.802 205.118 138.188C205.273 137.933 205.325 137.32 205.325 136.604C205.325 134.356 203.826 133.129 201.035 133.129C198.245 133.129 196.643 134.509 196.436 137.166H195.299C195.506 133.896 197.573 132.158 201.139 132.158C203.103 132.158 204.705 132.721 205.635 133.794C206.513 134.816 206.514 136.042 206.514 137.269V145.036C206.514 145.905 206.514 146.671 207.599 146.671C207.857 146.671 208.012 146.671 208.374 146.569V147.387ZM231.992 133.538H231.527C229.821 133.538 228.323 134.254 227.341 135.582C226.1 137.218 226.049 139.057 226.049 140.999V147.489H224.86V132.465H225.997V136.4C227.134 133.436 228.891 132.312 231.94 132.312V133.538H231.992ZM254.266 133.078C250.493 133.078 248.891 135.94 248.581 139.159H259.692C259.692 136.093 257.935 133.078 254.266 133.078ZM254.318 147.898C250.132 147.898 247.393 144.832 247.393 140.028C247.393 135.225 250.235 131.954 254.318 131.954C258.814 131.954 260.984 135.582 260.984 139.722V140.13H248.633C248.633 143.605 250.338 146.927 254.318 146.927C257.108 146.927 259.021 145.241 259.589 142.328H260.778C260.261 145.598 257.884 147.949 254.266 147.949" fill="black"/>
</svg>
