<svg width="147" height="79" viewBox="0 0 147 79" fill="none" xmlns="http://www.w3.org/2000/svg">
<path d="M81.808 11.963L85.251 10.3704L102.541 47.1111L99.0978 48.7037L81.808 11.963ZM97.7505 11.963L101.193 10.3704L118.483 47.1111L115.04 48.7037L97.7505 11.963ZM133.228 1.59259L136.671 0L139.44 5.88889L135.997 7.48148L133.228 1.59259ZM125.444 10.8889L147 11V14.6296L129.186 14.5556V26.2222L146.775 26.2963V29.9259L129.111 29.8519L129.037 44.4815L146.701 44.5556V48.1852L125.294 48.0741L125.444 10.8889ZM68.2981 10.2963L86.1492 48.1852H81.9952L75.97 35.7037H59.4661L53.5158 48.1852H49.2495L67.3625 10.2963H68.2981ZM67.8116 18.3333L61.2625 32.0741H74.3607L67.8116 18.3333ZM0 48.1482L5.50128 10.2593H6.13747L21.7057 41.3333L37.1243 10.2593H37.723L43.2243 48.1482H39.4819L35.7021 21.037L22.1548 48.1482H21.1818L7.48472 20.8148L3.70496 48.1482H0ZM2.35771 69.3704V70.0741C2.91906 68.4815 4.22887 67.3333 6.28717 67.3333C8.98167 67.3333 10.2167 69.0741 10.2167 71.5185V78.5185H9.35591V71.6667C9.35591 69.6296 8.45776 68.0741 6.10007 68.0741C4.19146 68.0741 2.95647 69.3333 2.54481 71.0741C2.43254 71.5926 2.35771 72.1482 2.35771 73V78.5185H1.49695V63.3704H2.35771V69.4074V69.3704ZM29.9389 72.7037C28.3297 73.1852 26.5708 72.9259 24.999 73.6296C24.1757 74 23.6892 74.7037 23.6892 75.6296C23.6892 77.1111 24.7745 78 26.5334 78C28.891 78 30.65 76.3704 30.65 74.1852V72.2593C30.388 72.4815 30.2757 72.5556 29.9015 72.6667H29.9389V72.7037ZM32.8954 78.4445C32.596 78.5556 32.3714 78.5926 31.9972 78.5926C31.0242 78.5926 30.7248 78.1482 30.7248 76.7778V76.2593C29.7892 78.037 28.5168 78.8889 26.4211 78.8889C24.1383 78.8889 22.791 77.7778 22.791 75.8519C22.791 73.3704 24.8867 72.6667 27.0199 72.5185C29.9015 72.2963 30.2383 72.2222 30.5377 71.7778C30.6874 71.5926 30.6874 71.1482 30.6874 70.6296C30.6874 69 29.6021 68.1111 27.5812 68.1111C25.5603 68.1111 24.4376 69.1111 24.2505 71.037H23.4272C23.5769 68.6667 25.0738 67.4074 27.6561 67.4074C29.0782 67.4074 30.2383 67.8148 30.9119 68.5926C31.5481 69.3333 31.5481 70.2222 31.5481 71.1111V76.7408C31.5481 77.3704 31.5481 77.9259 32.334 77.9259C32.5211 77.9259 32.6334 77.9259 32.8954 77.8519V78.4445ZM45.9188 78.5185H45.058V67.6296H45.9188V78.5185ZM45.9188 65.5185H45.058V63.3704H45.9188V65.5185ZM64.3686 68.4074H64.0318C62.7968 68.4074 61.7116 68.9259 61.0005 69.8889C60.1023 71.0741 60.0649 72.4074 60.0649 73.8148V78.5185H59.2042V67.6296H60.0649V70.4815C60.8882 68.3333 62.1607 67.5185 64.3686 67.5185V68.4074ZM80.6105 78.8519C77.2424 78.8519 75.5583 76.2593 75.5583 73.1111C75.5583 69.5926 77.5792 67.2963 80.7228 67.2963C83.2676 67.2963 84.9516 68.6667 85.2136 70.963H84.3528C84.1283 69.1852 82.7436 68.037 80.7602 68.037C78.1405 68.037 76.4565 70 76.4565 73.0741C76.4565 76.1482 78.1031 78.1111 80.6105 78.1111C82.7062 78.1111 84.2031 76.8148 84.4651 74.6667H85.3259C84.9891 77.2963 83.2676 78.8148 80.6479 78.8148H80.6105V78.8519ZM104.487 72.8148C102.878 73.2963 101.119 73.037 99.5469 73.7407C98.7235 74.1111 98.237 74.8148 98.237 75.7408C98.237 77.2222 99.3223 78.1111 101.119 78.1111C103.476 78.1111 105.235 76.4815 105.235 74.2963V72.3704C104.973 72.5926 104.861 72.6667 104.487 72.7778V72.8148ZM107.443 78.5556C107.144 78.6667 106.919 78.7037 106.545 78.7037C105.572 78.7037 105.273 78.2593 105.273 76.8889V76.3704C104.337 78.1482 103.065 79 100.969 79C98.6861 79 97.3388 77.8889 97.3388 75.963C97.3388 73.4815 99.4346 72.7778 101.568 72.6296C104.449 72.4074 104.786 72.3333 105.086 71.8889C105.198 71.7037 105.235 71.2593 105.235 70.7407C105.235 69.1111 104.15 68.2222 102.129 68.2222C100.108 68.2222 98.9481 69.2222 98.7984 71.1482H97.975C98.1247 68.7778 99.6217 67.5185 102.204 67.5185C103.626 67.5185 104.786 67.9259 105.46 68.7037C106.096 69.4444 106.096 70.3333 106.096 71.2222V76.8519C106.096 77.4815 106.096 78.037 106.882 78.037C107.069 78.037 107.181 78.037 107.443 77.963V78.5556ZM124.546 68.5185H124.209C122.974 68.5185 121.889 69.037 121.178 70C120.28 71.1852 120.242 72.5185 120.242 73.9259V78.6296H119.381V67.7408H120.205V70.5926C121.028 68.4445 122.3 67.6296 124.508 67.6296V68.5185H124.546ZM140.675 68.1852C137.943 68.1852 136.783 70.2593 136.559 72.5926H144.605C144.605 70.3704 143.332 68.1852 140.675 68.1852ZM140.713 78.9259C137.681 78.9259 135.698 76.7037 135.698 73.2222C135.698 69.7408 137.756 67.3704 140.713 67.3704C143.969 67.3704 145.54 70 145.54 73V73.2963H136.596C136.596 75.8148 137.831 78.2222 140.713 78.2222C142.734 78.2222 144.118 77 144.53 74.8889H145.391C145.017 77.2593 143.295 78.963 140.675 78.963" fill="black"/>
</svg>
