<svg width="257" height="35" viewBox="0 0 257 35" fill="none" xmlns="http://www.w3.org/2000/svg">
<path d="M0 0.860407H4.44544V14.3402H21.3668V0.860407H25.8122V33.4126H21.3668V18.212H4.44544V33.4126H0L0 0.860407ZM41.2996 0.860407H64.9608V4.87565H45.6016V14.7704H63.5268V18.4988H45.6016V29.5407H65.391V33.4126H41.2996V0.860407ZM79.3009 0.860407H83.7464V29.5407H100.238V33.4126H79.3009V0.860407ZM115.581 22.8008C115.677 24.7129 116.107 26.2425 116.872 27.3897C118.306 29.4929 120.887 30.5445 124.616 30.5445C126.241 30.5445 127.723 30.3055 129.061 29.8275C131.738 28.9671 133.076 27.3419 133.076 24.9519C133.076 23.231 132.503 21.9882 131.356 21.2234C130.304 20.4586 128.583 19.7894 126.193 19.2158L121.748 18.212C118.88 17.6384 116.824 16.9214 115.581 16.061C113.574 14.7226 112.57 12.7149 112.57 10.0381C112.57 7.07447 113.574 4.68445 115.581 2.86803C117.589 0.95601 120.457 0 124.186 0C127.532 0 130.4 0.81261 132.79 2.43783C135.18 4.15865 136.375 6.78767 136.375 10.3249H132.216C132.025 8.60409 131.595 7.26568 130.925 6.30967C129.491 4.68445 127.197 3.87184 124.042 3.87184C121.461 3.87184 119.597 4.39765 118.45 5.44926C117.302 6.59647 116.729 7.88708 116.729 9.3211C116.729 10.8507 117.398 11.9979 118.736 12.7627C119.597 13.2407 121.557 13.8143 124.616 14.4836L129.205 15.6308C131.403 16.1088 133.076 16.778 134.224 17.6384C136.327 19.168 137.378 21.3668 137.378 24.2349C137.378 27.8677 136.04 30.4489 133.363 31.9785C130.782 33.5082 127.771 34.273 124.329 34.273C120.218 34.273 117.063 33.2692 114.864 31.2615C112.57 29.1583 111.423 26.3381 111.423 22.8008H115.581ZM152.149 0.860407H156.594V33.4126H152.149V0.860407ZM171.938 0.860407H177.101L193.592 27.1029V0.860407H197.75V33.2691H192.731L176.097 7.02668V33.2691H171.938V0.860407ZM212.808 0.860407H217.11V16.778L233.027 0.860407H239.05L225.57 14.0533L239.48 33.4126H233.744L222.272 17.2082L217.11 22.0838V33.4126H212.808V0.860407ZM252.243 0.860407H256.688V33.4126H252.243V0.860407Z" fill="white"/>
</svg>
