<svg width="75" height="18" viewBox="0 0 75 18" fill="none" xmlns="http://www.w3.org/2000/svg">
<path d="M58.5393 16.5623L51.0042 0.800413L52.3466 0L59.8817 15.7619L58.5393 16.5623ZM66.6578 16.5623L59.1226 0.800413L60.4651 0L68.0002 15.7619L66.6578 16.5623ZM73.6576 16.5623L66.1224 0.800413L67.4648 0L75 15.7619L73.6576 16.5623ZM50.7485 13.2552L44.4598 0.105544H43.4051L34.5674 15.0407L27.6076 0.501362L27.3999 0.0967534H26.417L17.6353 14.9439L10.7234 0.501362L10.5157 0.0967534H9.53282L0 16.2193L1.3584 16.7998L9.94034 2.28689L17.036 17.1165H18.0508L26.8245 2.28689L33.9202 17.1165H35.0389L43.8446 2.23411L50.9722 17.1429H52.1468L52.4025 16.7119L50.7485 13.2376V13.2552Z" fill="#FC4501"/>
</svg>
