<svg width="249" height="34" viewBox="0 0 249 34" fill="none" xmlns="http://www.w3.org/2000/svg">
<path fill-rule="evenodd" clip-rule="evenodd" d="M0 0.846554H6.20807L15.5201 28.2184L24.6911 0.846554H30.8991V33.1566H26.6664V14.1092C26.6664 13.4508 26.6664 12.369 26.6664 10.8641C26.7604 9.35909 26.8074 7.71302 26.8074 5.92585L17.6365 33.1566H13.2627L3.95064 5.92585V6.9135C3.95064 7.76005 3.99763 8.98284 4.0917 10.5819C4.0917 12.1809 4.0917 13.3567 4.0917 14.1092V33.1566H0L0 0.846554ZM59.5407 0C65.1844 0 69.3702 1.8342 72.0979 5.50258C74.2614 8.32442 75.343 11.9458 75.343 16.3666C75.343 21.1638 74.1203 25.1614 71.6747 28.3594C68.8528 32.1219 64.7612 34.0031 59.3997 34.0031C54.4144 34.0031 50.5109 32.357 47.6891 29.0649C45.1494 25.9609 43.8796 21.9633 43.8796 17.0721C43.8796 12.7453 44.9613 9.02987 47.1247 5.92585C49.9465 1.97529 54.0852 0 59.5407 0ZM59.964 30.0525C63.8205 30.0525 66.5953 28.6887 68.2884 25.9609C69.9815 23.2331 70.8281 20.0821 70.8281 16.5077C70.8281 12.6512 69.8405 9.59424 67.8652 7.33677C65.8899 4.98524 63.2091 3.80948 59.8229 3.80948C56.4367 3.80948 53.709 4.98524 51.6396 7.33677C49.4762 9.59424 48.3945 12.9334 48.3945 17.3543C48.3945 20.9286 49.2881 23.9386 51.0752 26.3842C52.9565 28.8297 55.9194 30.0525 59.964 30.0525ZM91.5686 22.7158C91.6627 24.5029 92.086 25.9609 92.8384 27.0896C94.2494 29.253 96.789 30.3347 100.457 30.3347C102.15 30.3347 103.655 30.0996 104.972 29.6293C107.606 28.6887 108.923 27.0426 108.923 24.6911C108.923 22.998 108.358 21.7752 107.23 21.0227C106.101 20.2702 104.361 19.6118 102.009 19.0474L97.6355 18.0597C94.8137 17.4954 92.7914 16.7899 91.5686 15.9434C89.4992 14.6265 88.4646 12.6042 88.4646 9.87642C88.4646 7.05459 89.4992 4.70306 91.5686 2.82184C93.5439 0.940612 96.3657 0 100.034 0C103.42 0 106.289 0.846549 108.641 2.53965C110.992 4.13869 112.168 6.72537 112.168 10.2997H108.076C107.888 8.6066 107.418 7.28974 106.665 6.34913C105.349 4.65603 103.091 3.80948 99.893 3.80948C97.3534 3.80948 95.5192 4.32681 94.3904 5.36149C93.2617 6.49022 92.6973 7.76005 92.6973 9.17096C92.6973 10.77 93.3558 11.9458 94.6726 12.6983C95.5192 13.1686 97.4474 13.7329 100.457 14.3914L104.972 15.5201C107.136 15.9904 108.829 16.6488 110.052 17.4954C112.121 19.0004 113.156 21.2108 113.156 24.1267C113.156 27.607 111.839 30.1466 109.205 31.7456C106.665 33.2506 103.655 34.0031 100.175 34.0031C96.1305 34.0031 92.9795 32.9684 90.7221 30.8991C88.4646 28.9238 87.3828 26.196 87.4769 22.7158H91.5686ZM140.386 0C144.431 0 147.582 1.0817 149.839 3.24511C152.097 5.31445 153.367 7.76005 153.649 10.5819H149.275C148.805 8.41847 147.864 6.7724 146.453 5.64367C145.042 4.42087 143.02 3.80948 140.386 3.80948C137.188 3.80948 134.602 4.89118 132.626 7.05459C130.745 9.31206 129.804 12.7453 129.804 17.3543C129.804 21.1167 130.651 24.1737 132.344 26.5252C134.131 28.8768 136.765 30.0525 140.245 30.0525C143.443 30.0525 145.889 28.8297 147.582 26.3842C148.523 25.0673 149.181 23.3272 149.557 21.1638H153.931C153.555 24.644 152.285 27.5129 150.122 29.7704C147.582 32.4981 144.102 33.862 139.681 33.862C136.012 33.862 132.908 32.7333 130.369 30.4758C126.983 27.4659 125.29 22.8569 125.29 16.6488C125.29 11.8517 126.559 7.94817 129.099 4.93821C131.827 1.64607 135.589 0 140.386 0ZM181.162 0C186.9 0 191.132 1.8342 193.86 5.50258C196.024 8.32442 197.105 11.9458 197.105 16.3666C197.105 21.1638 195.882 25.1614 193.437 28.3594C190.521 32.1219 186.429 34.0031 181.162 34.0031C176.177 34.0031 172.273 32.357 169.451 29.0649C166.912 25.9609 165.642 21.9633 165.642 17.0721C165.642 12.7453 166.723 9.02987 168.887 5.92585C171.709 1.97529 175.8 0 181.162 0ZM181.726 30.0525C185.583 30.0525 188.358 28.6887 190.051 25.9609C191.744 23.2331 192.59 20.0821 192.59 16.5077C192.59 12.6512 191.603 9.59424 189.627 7.33677C187.652 4.98524 184.924 3.80948 181.444 3.80948C178.152 3.80948 175.424 4.98524 173.261 7.33677C171.191 9.59424 170.157 12.9334 170.157 17.3543C170.157 20.9286 171.05 23.9386 172.837 26.3842C174.625 28.8297 177.588 30.0525 181.726 30.0525ZM212.484 0.846554L218.551 27.0896L225.888 0.846554H230.685L237.881 27.0896L243.948 0.846554H248.745L240.279 33.0155H235.764L228.287 6.34913L220.809 33.0155H216.153L207.828 0.846554H212.484Z" fill="white"/>
</svg>
