<svg width="23" height="21" viewBox="0 0 23 21" fill="none" xmlns="http://www.w3.org/2000/svg">
<path d="M19.8664 0.105008C19.6245 0.156181 19.1521 0.309699 18.818 0.442748C18.4954 0.586032 18.0231 0.8726 17.7811 1.08753C17.5277 1.30245 16.6406 2.2338 15.8111 3.16514C14.9701 4.09649 13.772 5.47815 13.1383 6.23551C12.5162 6.99287 11.537 8.21078 10.9609 8.94767C10.3849 9.68456 9.46324 10.9025 8.89873 11.6598C8.34573 12.4172 7.47017 13.6146 6.95174 14.3208C6.41027 15.0475 5.91488 15.6104 5.79967 15.6206C5.67294 15.6411 5.5347 15.5183 5.38493 15.2726C5.26972 15.0577 4.97019 14.4027 4.72825 13.8193C4.46328 13.1848 4.15222 12.6321 3.95637 12.4581C3.70291 12.2227 3.55314 12.1716 3.09232 12.1716C2.73134 12.1784 2.32044 12.2807 1.85961 12.4786C1.47943 12.6423 0.960998 12.9289 0.719065 13.1131C0.465611 13.2974 0.189115 13.6146 0.10847 13.8091C-0.0297774 14.0957 -0.0297771 14.2799 0.0739088 14.7302C0.154553 15.0372 0.384966 15.7946 0.592338 16.4189C0.799709 17.0432 1.16837 18.0257 1.42182 18.6193C1.66376 19.2129 2.00938 19.9089 2.18219 20.1852C2.355 20.4513 2.60845 20.7379 2.7467 20.8198C2.94255 20.9323 3.36881 20.9835 4.33655 20.9937C5.51166 21.0142 5.71903 20.9937 6.14529 20.7891C6.42179 20.6662 6.72132 20.4616 6.82501 20.3285C6.91717 20.2057 7.83883 18.9775 8.86416 17.5959C9.8895 16.2142 10.984 14.7609 11.3065 14.372C11.6176 13.9831 12.0439 13.4202 12.2628 13.1438C12.4816 12.8573 13.2535 11.9157 13.9563 11.0458C14.6706 10.1758 16.0415 8.53829 17.0093 7.41249C17.977 6.28668 19.636 4.42399 20.6843 3.27772C21.7327 2.12122 22.6889 1.06706 22.7926 0.923773C22.9078 0.780489 23 0.53486 23 0.371107C23 0.217588 22.9309 0.0743043 22.8272 0.0436006C22.735 0.0128969 22.1244 -0.00757225 21.4678 0.00266231C20.8226 0.0128969 20.0968 0.0538351 19.8549 0.105008H19.8664Z" fill="#FC4501"/>
</svg>
