<svg width="93" height="35" viewBox="0 0 93 35" fill="none" xmlns="http://www.w3.org/2000/svg">
<path fill-rule="evenodd" clip-rule="evenodd" d="M0 1.00387H15.3448C17.8306 1.00387 19.8861 1.38629 21.5114 2.15114C24.5708 3.48963 26.1005 6.071 26.1005 9.89524C26.1005 11.903 25.718 13.5283 24.9532 14.7712C24.0927 16.014 22.9455 17.0179 21.5114 17.7828C22.7543 18.2608 23.7103 18.93 24.3796 19.7905C25.0488 20.6509 25.4312 22.0372 25.5268 23.9494L25.6702 28.395C25.6702 29.6379 25.7658 30.5462 25.957 31.1198C26.2439 32.1715 26.7219 32.8407 27.3911 33.1275V33.8446H21.9416C21.7504 33.5578 21.607 33.2231 21.5114 32.8407C21.4158 32.3627 21.3679 31.5022 21.3679 30.2594L21.0812 24.6664C20.9856 22.5631 20.1729 21.129 18.6432 20.3641C17.7827 19.9817 16.4443 19.7905 14.6278 19.7905H4.44565V33.8446H0L0 1.00387ZM14.7711 16.0618C16.8745 16.0618 18.5476 15.6794 19.7905 14.9146C21.0333 14.0541 21.6548 12.5244 21.6548 10.3255C21.6548 8.03092 20.7943 6.45342 19.0734 5.59296C18.1174 5.11493 16.8745 4.87592 15.3448 4.87592H4.44565V16.0618H14.7711ZM41.8755 1.00387H46.4646V33.988H41.8755V1.00387ZM76.1503 0C81.9823 0 86.2845 1.86432 89.0571 5.59296C91.2561 8.55676 92.3555 12.2854 92.3555 16.7789C92.3555 21.7504 91.1127 25.8615 88.6269 29.1121C85.6631 32.9363 81.4565 34.8485 76.0069 34.8485C70.9398 34.8485 66.9721 33.1754 64.104 29.8291C61.5226 26.5785 60.2319 22.5153 60.2319 17.6393C60.2319 13.1459 61.3313 9.32161 63.5303 6.1666C66.3985 2.05554 70.6051 0 76.1503 0ZM76.5805 30.833C80.5004 30.833 83.3208 29.4467 85.0417 26.6741C86.8582 23.8059 87.7665 20.5553 87.7665 16.9223C87.7665 13.0024 86.7626 9.89524 84.7548 7.6007C82.6515 5.21054 79.8789 4.01546 76.4371 4.01546C72.9953 4.01546 70.2227 5.21054 68.1194 7.6007C65.9205 9.89524 64.821 13.3371 64.821 17.9262C64.821 21.5592 65.7292 24.6186 67.5457 27.1044C69.4579 29.5901 72.4694 30.833 76.5805 30.833Z" fill="white"/>
</svg>
