<svg width="190" height="35" viewBox="0 0 190 35" fill="none" xmlns="http://www.w3.org/2000/svg">
<path fill-rule="evenodd" clip-rule="evenodd" d="M26.6198 0.858701V4.72287H15.5997V33.6325H11.1631V4.72287H0L0 0.858701H26.6198ZM52.3809 0C58.201 0 62.4945 1.86052 65.2614 5.58157C67.4559 8.44391 68.5531 12.165 68.5531 16.7447C68.5531 21.6107 67.3128 25.6657 64.8321 28.9097C61.8743 32.7261 57.6762 34.6344 52.2378 34.6344C47.181 34.6344 43.2213 32.9647 40.359 29.6253C37.7829 26.3813 36.4949 22.3263 36.4949 17.4603C36.4949 12.976 37.5921 9.1595 39.7866 6.01092C42.6489 2.00364 46.847 0 52.3809 0ZM52.8102 30.6271C56.7221 30.6271 59.5368 29.2436 61.2542 26.4767C63.067 23.7098 63.9733 20.4658 63.9733 16.7447C63.9733 12.9283 62.9715 9.82738 60.9679 7.4421C58.8689 5.15222 56.1019 4.00728 52.6671 4.00728C49.2323 4.00728 46.4654 5.15222 44.3663 7.4421C42.1719 9.73197 41.0746 13.1668 41.0746 17.7465C41.0746 21.3722 41.981 24.4253 43.7938 26.906C45.7021 29.3867 48.7075 30.6271 52.8102 30.6271ZM82.0062 0.858701H86.4428V16.8878L102.329 0.858701H108.483L94.8867 14.1686L108.912 33.6325H103.044L91.595 17.1741L86.4428 22.3263V33.6325H82.0062V0.858701ZM118.215 0.858701H123.367L132.813 16.7447L142.258 0.858701H147.554L135.103 20.4658V33.7757H130.666V20.4658L118.215 0.858701ZM173.601 0C179.421 0 183.715 1.86052 186.482 5.58157C188.676 8.53932 189.773 12.2604 189.773 16.7447C189.773 21.6107 188.533 25.6657 186.052 28.9097C183.095 32.7261 178.944 34.6344 173.601 34.6344C168.544 34.6344 164.537 32.9647 161.579 29.6253C159.003 26.4767 157.715 22.4217 157.715 17.4603C157.715 13.0714 158.86 9.30262 161.15 6.15404C163.917 2.05135 168.067 0 173.601 0ZM174.031 30.7702C177.942 30.7702 180.805 29.339 182.618 26.4767C184.335 23.7098 185.194 20.4658 185.194 16.7447C185.194 12.9283 184.192 9.82738 182.188 7.4421C180.185 5.15222 177.418 4.00728 173.887 4.00728C170.548 4.00728 167.781 5.15222 165.587 7.4421C163.488 9.82738 162.438 13.2622 162.438 17.7465C162.438 21.3722 163.344 24.4253 165.157 26.906C166.97 29.4821 169.928 30.7702 174.031 30.7702Z" fill="white"/>
</svg>
