<svg width="105" height="57" viewBox="0 0 105 57" fill="none" xmlns="http://www.w3.org/2000/svg">
<path d="M58.4343 8.6315L60.8936 7.48242L73.2434 33.9916L70.7841 35.1406L58.4343 8.6315ZM69.8218 8.6315L72.2811 7.48242L84.6308 33.9916L82.1716 35.1406L69.8218 8.6315ZM95.1629 1.14909L97.6222 0L99.6003 4.24895L97.141 5.39803L95.1629 1.14909ZM89.6029 7.85654L105 7.93671V10.5556L92.276 10.5021V18.9198L104.84 18.9733V21.5921L92.2225 21.5387L92.169 32.0942L104.786 32.1477V34.7665L89.4959 34.6864L89.6029 7.85654ZM48.7844 7.42897L61.5351 34.7665H58.568L54.2643 25.7609H42.4758L38.2256 34.7665H35.1782L48.1161 7.42897H48.7844ZM48.4369 13.2279L43.7589 23.1421H53.1148L48.4369 13.2279ZM0 34.7398L3.92948 7.40225H4.38391L15.5041 29.8228L26.5173 7.40225H26.945L30.8745 34.7398H28.2014L25.5015 15.1786L15.8249 34.7398H15.1298L5.34623 15.0183L2.6464 34.7398H0ZM1.68408 50.052V50.5598C2.08504 49.4107 3.02062 48.5823 4.49084 48.5823C6.41548 48.5823 7.29761 49.8383 7.29761 51.602V56.6526H6.68279V51.7089C6.68279 50.2391 6.04125 49.1167 4.35719 49.1167C2.9939 49.1167 2.11176 50.0253 1.81772 51.2813C1.73753 51.6554 1.68408 52.0563 1.68408 52.6709V56.6526H1.06925V45.7229H1.68408V50.0788V50.052ZM21.3849 52.4571C20.2355 52.8045 18.9791 52.6174 17.8564 53.1252C17.2683 53.3924 16.9208 53.9001 16.9208 54.5682C16.9208 55.6371 17.696 56.2785 18.9524 56.2785C20.6365 56.2785 21.8928 55.1027 21.8928 53.526V52.1364C21.7057 52.2968 21.6255 52.3502 21.3582 52.4304H21.3849V52.4571ZM23.4967 56.5992C23.2828 56.6793 23.1225 56.7061 22.8551 56.7061C22.1601 56.7061 21.9463 56.3854 21.9463 55.3966V55.0225C21.278 56.3052 20.3692 56.9198 18.8722 56.9198C17.2416 56.9198 16.2793 56.1181 16.2793 54.7286C16.2793 52.9381 17.7762 52.4304 19.2999 52.3235C21.3582 52.1632 21.5988 52.1097 21.8126 51.789C21.9196 51.6554 21.9196 51.3347 21.9196 50.9606C21.9196 49.7848 21.1444 49.1435 19.7009 49.1435C18.2574 49.1435 17.4555 49.865 17.3218 51.2546H16.7337C16.8406 49.5443 17.9099 48.6357 19.7543 48.6357C20.7701 48.6357 21.5988 48.9297 22.0799 49.4909C22.5344 50.0253 22.5344 50.6667 22.5344 51.308V55.3699C22.5344 55.8242 22.5344 56.225 23.0957 56.225C23.2294 56.225 23.3096 56.225 23.4967 56.1716V56.5992ZM32.7991 56.6526H32.1843V48.7961H32.7991V56.6526ZM32.7991 47.2729H32.1843V45.7229H32.7991V47.2729ZM45.9776 49.3573H45.737C44.8549 49.3573 44.0797 49.7314 43.5718 50.4262C42.9302 51.2813 42.9035 52.2433 42.9035 53.2588V56.6526H42.2887V48.7961H42.9035V50.8537C43.4916 49.3038 44.4005 48.7159 45.9776 48.7159V49.3573ZM57.5789 56.8931C55.1731 56.8931 53.9702 55.0225 53.9702 52.7511C53.9702 50.2124 55.4137 48.5556 57.6591 48.5556C59.4768 48.5556 60.6797 49.5443 60.8669 51.2011H60.252C60.0916 49.9184 59.1026 49.09 57.6858 49.09C55.8147 49.09 54.6118 50.5063 54.6118 52.7243C54.6118 54.9423 55.7879 56.3587 57.5789 56.3587C59.0759 56.3587 60.1451 55.4234 60.3322 53.8734H60.947C60.7065 55.7708 59.4768 56.8664 57.6056 56.8664H57.5789V56.8931ZM74.6334 52.5373C73.484 52.8847 72.2276 52.6976 71.1049 53.2053C70.5168 53.4726 70.1693 53.9803 70.1693 54.6484C70.1693 55.7173 70.9445 56.3587 72.2276 56.3587C73.9117 56.3587 75.168 55.1828 75.168 53.6062V52.2166C74.9809 52.3769 74.9007 52.4304 74.6334 52.5105V52.5373ZM76.7451 56.6793C76.5313 56.7595 76.3709 56.7862 76.1036 56.7862C75.4086 56.7862 75.1948 56.4655 75.1948 55.4768V55.1027C74.5265 56.3854 73.6176 57 72.1207 57C70.4901 57 69.5277 56.1983 69.5277 54.8087C69.5277 53.0183 71.0247 52.5106 72.5484 52.4037C74.6067 52.2433 74.8472 52.1899 75.0611 51.8692C75.1413 51.7356 75.168 51.4149 75.168 51.0408C75.168 49.865 74.3928 49.2236 72.9493 49.2236C71.5058 49.2236 70.6772 49.9451 70.5703 51.3347H69.9822C70.0891 49.6245 71.1583 48.7159 73.0028 48.7159C74.0186 48.7159 74.8472 49.0098 75.3284 49.571C75.7828 50.1055 75.7828 50.7468 75.7828 51.3882V55.4501C75.7828 55.9044 75.7828 56.3052 76.3442 56.3052C76.4779 56.3052 76.558 56.3052 76.7451 56.2518V56.6793ZM88.9613 49.4374H88.7207C87.8386 49.4374 87.0634 49.8115 86.5555 50.5063C85.9139 51.3615 85.8872 52.3235 85.8872 53.339V56.7328H85.2724V48.8762H85.8605V50.9339C86.4486 49.384 87.3574 48.7961 88.9346 48.7961V49.4374H88.9613ZM100.482 49.1969C98.5311 49.1969 97.7024 50.6934 97.542 52.3769H103.289C103.289 50.7736 102.38 49.1969 100.482 49.1969ZM100.509 56.9466C98.3439 56.9466 96.9272 55.3432 96.9272 52.8312C96.9272 50.3193 98.3974 48.609 100.509 48.609C102.835 48.609 103.957 50.5063 103.957 52.6709V52.8847H97.5687C97.5687 54.7018 98.4509 56.4388 100.509 56.4388C101.953 56.4388 102.942 55.557 103.236 54.0338H103.851C103.583 55.744 102.354 56.9733 100.482 56.9733" fill="#FC4501"/>
</svg>
